<svg xmlns="http://www.w3.org/2000/svg" width="46.512" height="49.068" viewBox="0 0 46.512 49.068">
  <g id="Group_9010" data-name="Group 9010" transform="translate(0.5 0.507)">
    <rect id="Rectangle_4072" data-name="Rectangle 4072" width="32.4" height="32.4" transform="translate(0.192 25.651) rotate(-45)" fill="#00b7c9" opacity="0.5"/>
    <g id="Group_9009" data-name="Group 9009">
      <path id="Path_56994" data-name="Path 56994" d="M1573.994-716.839a3.485,3.485,0,0,0-1.828-1.249l-1.143-.233-2.648-.069-5.715-.027a1.777,1.777,0,0,0-1.541.878l-3.157,5.383a1.8,1.8,0,0,0,.823,2.411h0a1.8,1.8,0,0,0,2.411-.823l2.716-4.53" transform="translate(-1542.531 727.544)" fill="none" stroke="#181818" stroke-linecap="round" stroke-miterlimit="10" stroke-width="1"/>
      <line id="Line_1164" data-name="Line 1164" x2="3.748" y2="0.214" transform="translate(21.381 12.444)" fill="none" stroke="#181818" stroke-linecap="round" stroke-miterlimit="10" stroke-width="1"/>
      <line id="Line_1165" data-name="Line 1165" x1="3.834" y1="4.065" transform="translate(30.987 10.199)" fill="none" stroke="#181818" stroke-linecap="round" stroke-miterlimit="10" stroke-width="1"/>
      <path id="Path_56995" data-name="Path 56995" d="M1634.584-692.465l1.474,1.563a2.064,2.064,0,0,0,1.484.648l7.406.062a1.8,1.8,0,0,0,1.782-1.82h0a1.8,1.8,0,0,0-1.82-1.782l-6.562.071" transform="translate(-1603.526 707.989)" fill="none" stroke="#181818" stroke-linecap="round" stroke-miterlimit="10" stroke-width="1"/>
      <path id="Path_56996" data-name="Path 56996" d="M1540.618-649.111l-3.51,4.142a1.929,1.929,0,0,1-1.42.681l-7.417.2a1.8,1.8,0,0,0-1.782,1.82h0a1.8,1.8,0,0,0,1.82,1.782l9.25-.237a2.034,2.034,0,0,0,1.519-.742l4.552-5.537" transform="translate(-1517.682 672.503)" fill="none" stroke="#181818" stroke-linecap="round" stroke-miterlimit="10" stroke-width="1"/>
      <path id="Path_56997" data-name="Path 56997" d="M1613.233-648.37l5.9,5.464a1.785,1.785,0,0,1,.536,1.668l-2.3,11.41h-3.723l2.063-10.025a1.532,1.532,0,0,0-.455-1.427l-5.491-5.137" transform="translate(-1583.814 671.915)" fill="none" stroke="#181818" stroke-linecap="round" stroke-miterlimit="10" stroke-width="1"/>
      <line id="Line_1166" data-name="Line 1166" x1="1.639" y2="8.021" transform="translate(29.419 15.524)" fill="none" stroke="#181818" stroke-linecap="round" stroke-miterlimit="10" stroke-width="1"/>
      <line id="Line_1167" data-name="Line 1167" y1="10.734" x2="2.193" transform="translate(22.936 12.658)" fill="none" stroke="#181818" stroke-linecap="round" stroke-miterlimit="10" stroke-width="1"/>
      <path id="Path_56998" data-name="Path 56998" d="M1614.727-758.467a3.567,3.567,0,0,1-4.209,2.781,3.567,3.567,0,0,1-2.781-4.209,3.567,3.567,0,0,1,4.209-2.781A3.567,3.567,0,0,1,1614.727-758.467Z" transform="translate(-1582.147 762.749)" fill="none" stroke="#181818" stroke-linecap="round" stroke-miterlimit="10" stroke-width="1"/>
      <g id="Group_9008" data-name="Group 9008" transform="translate(0 18.886)">
        <line id="Line_1168" data-name="Line 1168" x2="7.054" transform="translate(6.341)" fill="none" stroke="#181818" stroke-linecap="round" stroke-miterlimit="10" stroke-width="1"/>
        <line id="Line_1169" data-name="Line 1169" x2="8.984" transform="translate(2.993 2.866)" fill="none" stroke="#181818" stroke-linecap="round" stroke-miterlimit="10" stroke-width="1"/>
        <line id="Line_1170" data-name="Line 1170" x2="9.476" transform="translate(0 5.731)" fill="none" stroke="#181818" stroke-linecap="round" stroke-miterlimit="10" stroke-width="1"/>
      </g>
      <line id="Line_1171" data-name="Line 1171" x2="41.786" transform="translate(0 42.087)" fill="none" stroke="#181818" stroke-linecap="round" stroke-miterlimit="10" stroke-width="1"/>
    </g>
  </g>
</svg>
