<svg id="Group_9007" data-name="Group 9007" xmlns="http://www.w3.org/2000/svg" width="48.973" height="45.821" viewBox="0 0 48.973 45.821">
  <rect id="Rectangle_4071" data-name="Rectangle 4071" width="32.4" height="32.4" transform="translate(0 22.91) rotate(-45)" fill="#90278e" opacity="0.5"/>
  <path id="Path_56993" data-name="Path 56993" d="M885.995-711.326a4.4,4.4,0,0,0-.044-6.225,4.4,4.4,0,0,0-6.226.043,4.4,4.4,0,0,0,.044,6.226A4.4,4.4,0,0,0,885.995-711.326Zm-4.5,17.536.127-4.629.148-6.165a6.564,6.564,0,0,0-1.68-4.2l-1.566-1.566A14.274,14.274,0,0,0,874.5-713l-13.435-5.366a1.82,1.82,0,0,0-2.32.924,1.816,1.816,0,0,0,.886,2.41l12.02,5.624-6.535,8.457-14.853-5.5a2.078,2.078,0,0,0-2.626,1.116,2.074,2.074,0,0,0,1.074,2.729l15.57,7.259a19.774,19.774,0,0,0,7.035,1.558h5.6l-.2-4.84-1.2-.052,2.022-2.663.027,2.751.131,4.8.084,3.1a1.822,1.822,0,0,0,.84,1.475v2.621H860.218v-4.293a1.117,1.117,0,0,0-.948-1.23,1.117,1.117,0,0,0-.947,1.23v4.293h-6.4v8.478h34.986V-686.6h-6.4v-2.587a1.81,1.81,0,0,0,.895-1.51Zm11.359-4.147-10.5-.451-.126,4.6,10.532,0a2.075,2.075,0,0,0,2.07-1.983A2.072,2.072,0,0,0,892.856-697.937Z" transform="translate(-846.367 720.445)" fill="none" stroke="#181818" stroke-miterlimit="10" stroke-width="1"/>
</svg>
