<svg id="Group_9006" data-name="Group 9006" xmlns="http://www.w3.org/2000/svg" width="45.821" height="45.821" viewBox="0 0 45.821 45.821">
  <rect id="Rectangle_4070" data-name="Rectangle 4070" width="32.4" height="32.4" transform="translate(0 22.91) rotate(-45)" fill="#00a69c" opacity="0.5"/>
  <g id="Group_9005" data-name="Group 9005" transform="translate(5.028 2.158)">
    <path id="Path_56989" data-name="Path 56989" d="M280.825-650.2h8.117a4.387,4.387,0,0,0,3.977-2.535l1.106-4.484" transform="translate(-265.595 669.24)" fill="none" stroke="#181818" stroke-miterlimit="10" stroke-width="1"/>
    <path id="Path_56990" data-name="Path 56990" d="M214.506-636.784l.055-6.71a5.449,5.449,0,0,0-2.259-4.549,12.683,12.683,0,0,1-5.465-10.438v-5.249a6.18,6.18,0,0,1,6.181-6.18h3.773a6.18,6.18,0,0,1,6.181,6.18v.516a5.08,5.08,0,0,1-3.1,4.728c-2.157.88-5.411,1.29-9.669-.743" transform="translate(-206.837 679.322)" fill="none" stroke="#181818" stroke-miterlimit="10" stroke-width="1"/>
    <path id="Path_56991" data-name="Path 56991" d="M219.752-704.971c-.423-12.224,17.361-11.914,24.226-8.945A11.47,11.47,0,0,1,251-703.907v9.114a12.667,12.667,0,0,1-4.352,9.57,5.408,5.408,0,0,0-1.771,4.091l0,8.036" transform="translate(-217.088 715.635)" fill="none" stroke="#181818" stroke-miterlimit="10" stroke-width="1"/>
    <line id="Line_1160" data-name="Line 1160" x2="20.1" transform="translate(7.687 39.813)" fill="none" stroke="#181818" stroke-miterlimit="10" stroke-width="1"/>
    <line id="Line_1161" data-name="Line 1161" x2="21.207" transform="translate(6.735 32.566)" fill="none" stroke="#181818" stroke-miterlimit="10" stroke-width="1"/>
    <path id="Path_56992" data-name="Path 56992" d="M274.635-557.432h-5.783a3.624,3.624,0,0,0-3.624,3.624h0a3.624,3.624,0,0,0,3.624,3.624h6.187" transform="translate(-253.208 589.998)" fill="none" stroke="#181818" stroke-miterlimit="10" stroke-width="1"/>
    <line id="Line_1162" data-name="Line 1162" x2="2.026" transform="translate(15.23 36.189)" fill="none" stroke="#181818" stroke-miterlimit="10" stroke-width="1"/>
    <line id="Line_1163" data-name="Line 1163" x2="2.026" transform="translate(19.282 36.189)" fill="none" stroke="#181818" stroke-miterlimit="10" stroke-width="1"/>
  </g>
</svg>
