<svg id="Group_8999" data-name="Group 8999" xmlns="http://www.w3.org/2000/svg" width="45.821" height="45.821" viewBox="0 0 45.821 45.821">
  <rect id="Rectangle_4066" data-name="Rectangle 4066" width="32.4" height="32.4" transform="translate(0 22.91) rotate(-45)" fill="#eb008b" opacity="0.5"/>
  <g id="Group_8998" data-name="Group 8998" transform="translate(3.695 3.695)">
    <ellipse id="Ellipse_478" data-name="Ellipse 478" cx="19.215" cy="19.215" rx="19.215" ry="19.215" fill="none" stroke="#181818" stroke-miterlimit="10" stroke-width="1"/>
    <path id="Path_56978" data-name="Path 56978" d="M-1723.5-697.226c-.955,2.754-5.512,3.674-10.178,2.057s-7.675-5.162-6.72-7.916" transform="translate(1757.704 704.615)" fill="none" stroke="#181818" stroke-miterlimit="10" stroke-width="1"/>
    <path id="Path_56979" data-name="Path 56979" d="M-1747.047-673.7c-1.16,3.346-8.3,3.91-15.94,1.26s-12.9-7.511-11.739-10.857" transform="translate(1784.956 688.898)" fill="none" stroke="#181818" stroke-miterlimit="10" stroke-width="1"/>
    <path id="Path_56980" data-name="Path 56980" d="M-1771.946-637.049c-1.245,3.592-9.844,3.872-19.206.626s-15.941-8.789-14.7-12.381" transform="translate(1809.664 661.507)" fill="none" stroke="#181818" stroke-miterlimit="10" stroke-width="1"/>
    <path id="Path_56981" data-name="Path 56981" d="M-1768.465-577.788c-2.676,2.25-9.552,2.116-16.82-.572a30.622,30.622,0,0,1-10.352-6.079" transform="translate(1801.435 610.391)" fill="none" stroke="#181818" stroke-miterlimit="10" stroke-width="1"/>
  </g>
</svg>
