<svg xmlns="http://www.w3.org/2000/svg" width="47.83" height="45.371" viewBox="0 0 47.83 45.371">
  <g id="Group_8994" data-name="Group 8994" transform="translate(-133.182 -119.136)">
    <g id="Group_8993" data-name="Group 8993" transform="translate(133.878 123.638)">
      <circle id="Ellipse_477" data-name="Ellipse 477" cx="5.16" cy="5.16" r="5.16" transform="translate(25.799 0)" fill="none" stroke="#181818" stroke-linejoin="round" stroke-width="1"/>
      <path id="Path_56975" data-name="Path 56975" d="M180.316,250.914c-3.206,4.587-8.4,4.587-11.609,0-3.206,4.587-8.4,4.587-11.61,0-3.206,4.587-8.4,4.587-11.609,0-3.206,4.587-8.4,4.587-11.609,0" transform="translate(-133.878 -228.555)" fill="none" stroke="#181818" stroke-linecap="round" stroke-linejoin="round" stroke-width="1"/>
      <path id="Path_56976" data-name="Path 56976" d="M195.31,284.666c-3.325,4.586-8.715,4.586-12.039,0-3.324,4.586-8.715,4.586-12.039,0-3.324,4.586-8.715,4.586-12.039,0" transform="translate(-154.032 -255.428)" fill="none" stroke="#181818" stroke-linecap="round" stroke-linejoin="round" stroke-width="1"/>
      <path id="Path_56977" data-name="Path 56977" d="M178.434,186.7l7.809-7.79a2.527,2.527,0,0,0,.379-3.2,2.434,2.434,0,0,0-3.721-.335l-7,6.985a1.72,1.72,0,0,1-2.03.3l-17.859-9.617a5.16,5.16,0,0,0-6.089.888l-6.826,6.8a2.525,2.525,0,0,0-.187,3.442,2.432,2.432,0,0,0,3.53.095l5.206-5.18a1.72,1.72,0,0,1,2.16-.216l3.992,2.632-3.44,3.477" transform="translate(-140.596 -166.063)" fill="none" stroke="#181818" stroke-linecap="round" stroke-linejoin="round" stroke-width="1"/>
    </g>
    <rect id="Rectangle_4057" data-name="Rectangle 4057" width="32.082" height="32.083" transform="translate(135.384 141.822) rotate(-45)" fill="#262261" opacity="0.3"/>
  </g>
</svg>
