<svg xmlns="http://www.w3.org/2000/svg" width="51.5" height="51.5" viewBox="0 0 51.5 51.5">
  <g id="Group_8018" data-name="Group 8018" transform="translate(14745.273 -5073.598)">
    <circle id="Ellipse_356" data-name="Ellipse 356" cx="25" cy="25" r="25" transform="translate(-14744.523 5074.348)" fill="none" stroke="#fff" stroke-linejoin="round" stroke-width="1.5"/>
    <path id="Path_7097" data-name="Path 7097" d="M-1091.031,404.264a4,4,0,0,1,4-4,4,4,0,0,1,4,4" transform="translate(-13641.492 4690.084)" fill="none" stroke="#fff" stroke-linecap="round" stroke-linejoin="round" stroke-width="1.5"/>
    <path id="Path_7098" data-name="Path 7098" d="M-1073.031,404.264a4,4,0,0,1,4-4,4,4,0,0,1,4,4" transform="translate(-13641.492 4690.084)" fill="none" stroke="#fff" stroke-linecap="round" stroke-linejoin="round" stroke-width="1.5"/>
    <path id="Path_7099" data-name="Path 7099" d="M-1092.475,413.264a14.994,14.994,0,0,0,14.444,11,14.994,14.994,0,0,0,14.444-11" transform="translate(-13641.492 4690.084)" fill="none" stroke="#fff" stroke-linecap="round" stroke-linejoin="round" stroke-width="1.5"/>
  </g>
</svg>
