<svg xmlns="http://www.w3.org/2000/svg" width="78.15" height="67.412" viewBox="0 0 78.15 67.412"><g transform="translate(-144.538 -115.131)"><path d="M207.472,128.174a7.075,7.075,0,1,0-10.005.07A7.076,7.076,0,0,0,207.472,128.174Zm-7.228,28.182.2-7.44.238-9.907a10.548,10.548,0,0,0-2.7-6.748l-2.516-2.516A22.945,22.945,0,0,0,189,125.484l-21.592-8.625a2.917,2.917,0,0,0-2.3,5.358l19.318,9.038-10.5,13.592-23.871-8.837a3.333,3.333,0,0,0-2.494,6.178l25.023,11.666a31.771,31.771,0,0,0,11.307,2.5h9l-.32-7.778-1.927-.083,3.249-4.281.043,4.421.21,7.72.136,4.979a2.929,2.929,0,0,0,1.351,2.371v4.212h-29.58v-6.9a1.575,1.575,0,1,0-3.046,0v6.9H152.722v13.625h56.227V167.918H198.671v-4.157a2.91,2.91,0,0,0,1.438-2.427Zm18.255-6.664-16.867-.725-.2,7.388,16.927,0a3.331,3.331,0,0,0,.142-6.66Z" fill="none" stroke="#231f20" stroke-miterlimit="10" stroke-width="2"/></g></svg>