<svg xmlns="http://www.w3.org/2000/svg" width="76.354" height="74.445" viewBox="0 0 76.354 74.445"><g transform="translate(3226 3827.012)"><g transform="translate(-3225 -3826)"><g transform="translate(0 0)"><path d="M245.321,119.249a6,6,0,0,0-3.146-2.15l-1.966-.4-4.558-.118-9.835-.047a3.058,3.058,0,0,0-2.653,1.511l-5.433,9.264a3.1,3.1,0,0,0,1.416,4.149h0a3.1,3.1,0,0,0,4.149-1.416l4.674-7.8" transform="translate(-191.171 -100.827)" fill="none" stroke="#221f1f" stroke-linecap="round" stroke-miterlimit="10" stroke-width="2"/><line x2="6.45" y2="0.369" transform="translate(36.798 21.417)" fill="none" stroke="#221f1f" stroke-linecap="round" stroke-miterlimit="10" stroke-width="2"/><line x1="6.598" y1="6.997" transform="translate(53.33 17.553)" fill="none" stroke="#221f1f" stroke-linecap="round" stroke-miterlimit="10" stroke-width="2"/><path d="M294.219,143.445l2.536,2.689a3.553,3.553,0,0,0,2.555,1.115l12.746.107a3.1,3.1,0,0,0,3.067-3.133h0a3.1,3.1,0,0,0-3.133-3.067l-11.293.121" transform="translate(-240.768 -116.727)" fill="none" stroke="#221f1f" stroke-linecap="round" stroke-miterlimit="10" stroke-width="2"/><path d="M210.44,185.84l-6.041,7.129a3.32,3.32,0,0,1-2.445,1.172l-12.765.337a3.1,3.1,0,0,0-3.066,3.133h0a3.1,3.1,0,0,0,3.133,3.067l15.92-.407a3.5,3.5,0,0,0,2.615-1.276l7.834-9.531" transform="translate(-170.967 -145.581)" fill="none" stroke="#221f1f" stroke-linecap="round" stroke-miterlimit="10" stroke-width="2"/><path d="M275.37,186.58l10.153,9.4a3.073,3.073,0,0,1,.923,2.87l-3.959,19.638H276.08l3.551-17.254a2.639,2.639,0,0,0-.783-2.456l-9.451-8.842" transform="translate(-224.74 -146.059)" fill="none" stroke="#221f1f" stroke-linecap="round" stroke-miterlimit="10" stroke-width="2"/><line x1="2.82" y2="13.804" transform="translate(50.631 26.717)" fill="none" stroke="#221f1f" stroke-linecap="round" stroke-miterlimit="10" stroke-width="2"/><line y1="18.473" x2="3.775" transform="translate(39.473 21.785)" fill="none" stroke="#221f1f" stroke-linecap="round" stroke-miterlimit="10" stroke-width="2"/><path d="M279.454,79.572a6.14,6.14,0,1,1-4.786-7.244A6.14,6.14,0,0,1,279.454,79.572Z" transform="translate(-223.384 -72.202)" fill="none" stroke="#221f1f" stroke-linecap="round" stroke-miterlimit="10" stroke-width="2"/><g transform="translate(0 32.503)"><line x2="12.14" transform="translate(10.913)" fill="none" stroke="#221f1f" stroke-linecap="round" stroke-miterlimit="10" stroke-width="2"/><line x2="15.462" transform="translate(5.15 4.932)" fill="none" stroke="#221f1f" stroke-linecap="round" stroke-miterlimit="10" stroke-width="2"/><line x2="16.309" transform="translate(0 9.864)" fill="none" stroke="#221f1f" stroke-linecap="round" stroke-miterlimit="10" stroke-width="2"/></g><line x2="71.914" transform="translate(0 72.433)" fill="none" stroke="#221f1f" stroke-linecap="round" stroke-miterlimit="10" stroke-width="2"/></g></g></g></svg>