<svg id="cross" xmlns="http://www.w3.org/2000/svg" width="18.211" height="18.211" viewBox="0 0 18.211 18.211">
  <path id="Path_56969" data-name="Path 56969" d="M9.106,0a9.106,9.106,0,1,0,9.106,9.106A9.1,9.1,0,0,0,9.106,0ZM8.669,11.29,6.6,13.357A1.236,1.236,0,0,1,4.854,11.61L6.922,9.543a.618.618,0,0,0,0-.874L4.854,6.6A1.236,1.236,0,0,1,6.6,4.854L8.669,6.922a.619.619,0,0,0,.874,0L11.61,4.854A1.236,1.236,0,0,1,13.357,6.6L11.29,8.669a.618.618,0,0,0,0,.874l2.068,2.067a1.236,1.236,0,0,1-1.747,1.747L9.543,11.29a.618.618,0,0,0-.874,0Z" fill="#00b2a9"/>
</svg>
