<svg xmlns="http://www.w3.org/2000/svg" width="19.685" height="16.368" viewBox="0 0 19.685 16.368">
  <path id="Path_56966" data-name="Path 56966" d="M15.586,56.89a.288.288,0,0,0-.4.089,3.883,3.883,0,0,1-3.294,1.813H4.474a3.9,3.9,0,0,1-3.9-3.9V47.984a.288.288,0,0,0-.577,0v6.911a4.479,4.479,0,0,0,4.474,4.474h7.42a4.456,4.456,0,0,0,3.78-2.08A.288.288,0,0,0,15.586,56.89Zm-2.535-7.663-2.2,2.2a.288.288,0,1,0,.408.408l2.2-2.2a.288.288,0,1,0-.408-.408Zm6.217-4.8-1.005-1.005a1.428,1.428,0,0,0-2.018,0L15.2,44.461A4.447,4.447,0,0,0,11.894,43H4.474A4.476,4.476,0,0,0,.1,46.53a.288.288,0,0,0,.221.343.3.3,0,0,0,.061.006.288.288,0,0,0,.282-.228,3.9,3.9,0,0,1,3.81-3.074h7.42a3.874,3.874,0,0,1,2.9,1.293l-3.066,3.066H3.686a.288.288,0,1,0,0,.577H11.15L9.767,49.9H3.686a.288.288,0,1,0,0,.577H9.191L7.4,52.261a6.484,6.484,0,0,0-1.26,1.777l-.821,1.705a1.219,1.219,0,0,0,1.09,1.745,1.225,1.225,0,0,0,.532-.123l.827-.4h0l.877-.422a6.487,6.487,0,0,0,1.777-1.26l5.367-5.367v4.977a3.916,3.916,0,0,1-.112.934.288.288,0,1,0,.56.138,4.49,4.49,0,0,0,.129-1.071V49.34l.8-.8h0l2.1-2.1A1.429,1.429,0,0,0,19.268,44.423ZM6.693,56.845a.639.639,0,0,1-.852-.852l.243-.506A7.141,7.141,0,0,1,7.2,56.6ZM8.4,56.024l-.667.321A7.722,7.722,0,0,0,6.34,54.955l.321-.667a5.9,5.9,0,0,1,.83-1.274l2.181,2.181A5.912,5.912,0,0,1,8.4,56.024ZM10.093,54.8,7.886,52.593l6.465-6.466,2.207,2.207Zm6.873-6.873L14.759,45.72l.712-.712,2.207,2.207Zm1.894-1.894-.774.774L15.879,44.6l.774-.774a.851.851,0,0,1,1.2,0l1.005,1.005A.851.851,0,0,1,18.86,46.033Zm-15.174.521h9a.288.288,0,0,0,0-.577h-9a.288.288,0,1,0,0,.577Z" transform="translate(0 -43)" fill="#1a1818"/>
</svg>
