<svg xmlns="http://www.w3.org/2000/svg" width="36" height="36" viewBox="0 0 36 36">
  <g id="Group_8672" data-name="Group 8672" transform="translate(-704 -836)">
    <rect id="Rectangle" width="36" height="36" rx="3.282" transform="translate(704 836)" fill="#00b2a9"/>
    <g id="Group_8617" data-name="Group 8617" transform="translate(-214.328 563.047)">
      <circle id="Ellipse_342" data-name="Ellipse 342" cx="8.578" cy="8.578" r="8.578" transform="translate(927.75 284.009)" fill="none" stroke="#fff" stroke-linejoin="round" stroke-width="1"/>
      <circle id="Ellipse_343" data-name="Ellipse 343" cx="0.408" cy="0.408" r="0.408" transform="translate(935.919 292.179)" fill="none" stroke="#fff" stroke-linejoin="round" stroke-width="1"/>
      <path id="Path_7015" data-name="Path 7015" d="M944.422,294.555v6.127l-3.676,3.676" transform="translate(-8.094 -8.094)" fill="none" stroke="#fff" stroke-linecap="round" stroke-linejoin="round" stroke-width="1"/>
      <path id="Path_7016" data-name="Path 7016" d="M927.54,286.013a3.35,3.35,0,0,1,5.488-3.842Z" transform="translate(0)" fill="none" stroke="#fff" stroke-linecap="round" stroke-linejoin="round" stroke-width="1"/>
      <path id="Path_7017" data-name="Path 7017" d="M963.086,286.013a3.35,3.35,0,0,0-5.488-3.842Z" transform="translate(-17.97)" fill="none" stroke="#fff" stroke-linecap="round" stroke-linejoin="round" stroke-width="1"/>
      <path id="Path_7018" data-name="Path 7018" d="M961.524,323.841l.548.95a1.226,1.226,0,1,0,2.123-1.225l-.844-1.462" transform="translate(-20.27 -24.238)" fill="none" stroke="#fff" stroke-linejoin="round" stroke-width="1"/>
      <path id="Path_7019" data-name="Path 7019" d="M931.889,322.1l-.844,1.462a1.225,1.225,0,1,0,2.123,1.225l.548-.95" transform="translate(-2.313 -24.238)" fill="none" stroke="#fff" stroke-linejoin="round" stroke-width="1"/>
    </g>
  </g>
</svg>
