<svg xmlns="http://www.w3.org/2000/svg" width="19.241" height="18.78" viewBox="0 0 19.241 18.78">
  <g id="Group_7969" data-name="Group 7969" transform="translate(-1648.481 -46.713)">
    <g id="Group_7934" data-name="Group 7934" transform="translate(1660.937 58.707)">
      <circle id="Ellipse_346" data-name="Ellipse 346" cx="3.143" cy="3.143" r="3.143" transform="translate(0 0)" fill="none" stroke="#181818" stroke-linejoin="round" stroke-width="1"/>
      <g id="Group_7933" data-name="Group 7933" transform="translate(1.78 1.077)">
        <circle id="Ellipse_347" data-name="Ellipse 347" cx="0.15" cy="0.15" r="0.15" transform="translate(1.392 2.095)" fill="none" stroke="#181818" stroke-linejoin="round" stroke-width="1"/>
        <path id="Path_7034" data-name="Path 7034" d="M1694.284,87.263v2.245l-1.542-.017" transform="translate(-1692.742 -87.263)" fill="none" stroke="#181818" stroke-linecap="round" stroke-linejoin="round" stroke-width="1"/>
      </g>
    </g>
    <line id="Line_894" data-name="Line 894" x2="5.947" transform="translate(1654.267 48.535)" fill="none" stroke="#181818" stroke-linejoin="round" stroke-width="1"/>
    <line id="Line_895" data-name="Line 895" x2="16.54" transform="translate(1648.981 51.867)" fill="none" stroke="#181818" stroke-linecap="round" stroke-linejoin="round" stroke-width="1"/>
    <path id="Path_7035" data-name="Path 7035" d="M1662.935,49.856a.661.661,0,1,1-1.322,0V47.874a.661.661,0,0,1,1.322,0Z" transform="translate(-8.667 0)" fill="none" stroke="#181818" stroke-linecap="round" stroke-linejoin="round" stroke-width="1"/>
    <path id="Path_7036" data-name="Path 7036" d="M1686.094,49.856a.661.661,0,1,1-1.322,0V47.874a.661.661,0,0,1,1.322,0Z" transform="translate(-24.557 0)" fill="none" stroke="#181818" stroke-linecap="round" stroke-linejoin="round" stroke-width="1"/>
    <line id="Line_896" data-name="Line 896" x2="1.322" transform="translate(1651.624 54.482)" fill="none" stroke="#181818" stroke-linecap="round" stroke-linejoin="round" stroke-width="1"/>
    <line id="Line_897" data-name="Line 897" x2="1.322" transform="translate(1654.928 54.482)" fill="none" stroke="#181818" stroke-linecap="round" stroke-linejoin="round" stroke-width="1"/>
    <line id="Line_898" data-name="Line 898" x2="1.322" transform="translate(1658.232 54.482)" fill="none" stroke="#181818" stroke-linecap="round" stroke-linejoin="round" stroke-width="1"/>
    <line id="Line_899" data-name="Line 899" x2="1.322" transform="translate(1661.536 54.482)" fill="none" stroke="#181818" stroke-linecap="round" stroke-linejoin="round" stroke-width="1"/>
    <line id="Line_900" data-name="Line 900" x2="1.322" transform="translate(1651.624 57.125)" fill="none" stroke="#181818" stroke-linecap="round" stroke-linejoin="round" stroke-width="1"/>
    <line id="Line_901" data-name="Line 901" x2="1.322" transform="translate(1654.928 57.125)" fill="none" stroke="#181818" stroke-linecap="round" stroke-linejoin="round" stroke-width="1"/>
    <line id="Line_902" data-name="Line 902" x2="1.322" transform="translate(1658.232 57.125)" fill="none" stroke="#181818" stroke-linecap="round" stroke-linejoin="round" stroke-width="1"/>
    <line id="Line_903" data-name="Line 903" x2="1.322" transform="translate(1661.536 57.125)" fill="none" stroke="#181818" stroke-linecap="round" stroke-linejoin="round" stroke-width="1"/>
    <line id="Line_904" data-name="Line 904" x2="1.322" transform="translate(1651.624 59.768)" fill="none" stroke="#181818" stroke-linecap="round" stroke-linejoin="round" stroke-width="1"/>
    <line id="Line_905" data-name="Line 905" x2="1.322" transform="translate(1654.928 59.768)" fill="none" stroke="#181818" stroke-linecap="round" stroke-linejoin="round" stroke-width="1"/>
    <line id="Line_906" data-name="Line 906" x2="1.322" transform="translate(1658.232 59.768)" fill="none" stroke="#181818" stroke-linecap="round" stroke-linejoin="round" stroke-width="1"/>
    <path id="Path_7037" data-name="Path 7037" d="M1661.616,51.424h2.563a1.321,1.321,0,0,1,1.322,1.321v8.222a3.944,3.944,0,0,0-5.293,4.333H1650.3a1.322,1.322,0,0,1-1.322-1.322V52.745a1.322,1.322,0,0,1,1.322-1.321h2.483" transform="translate(0 -2.889)" fill="none" stroke="#181818" stroke-linejoin="round" stroke-width="1"/>
    <line id="Line_907" data-name="Line 907" x1="5.727" transform="translate(1654.428 48.535)" fill="none" stroke="#181818" stroke-linejoin="round" stroke-width="1"/>
  </g>
</svg>
