<svg xmlns="http://www.w3.org/2000/svg" width="23" height="23" viewBox="0 0 16.134 17.517">
  <g id="Group_8587" data-name="Group 8587" transform="translate(-234.755 -280.237)">
    <circle id="Ellipse_333" data-name="Ellipse 333" cx="6.905" cy="6.905" r="6.905" transform="translate(235.918 283.372)" fill="none" stroke="#00B2A9" stroke-linejoin="round" stroke-width="1"/>
    <circle id="Ellipse_334" data-name="Ellipse 334" cx="0.329" cy="0.329" r="0.329" transform="translate(242.494 289.948)" fill="none" stroke="#00B2A9" stroke-linejoin="round" stroke-width="1"/>
    <path id="Path_4668" data-name="Path 4668" d="M252.032,294.555v4.932l-2.959,2.959" transform="translate(-9.21 -9.21)" fill="none" stroke="#00B2A9" stroke-linecap="round" stroke-linejoin="round" stroke-width="1"/>
    <path id="Path_4669" data-name="Path 4669" d="M235.748,284.985a2.7,2.7,0,1,1,4.418-3.093Z" transform="translate(0)" fill="none" stroke="#00B2A9" stroke-linecap="round" stroke-linejoin="round" stroke-width="1"/>
    <path id="Path_4670" data-name="Path 4670" d="M270.343,284.985a2.7,2.7,0,0,0-4.418-3.093Z" transform="translate(-20.446)" fill="none" stroke="#00B2A9" stroke-linecap="round" stroke-linejoin="round" stroke-width="1"/>
    <path id="Path_4671" data-name="Path 4671" d="M269.851,323.5l.441.764A.986.986,0,1,0,272,323.28l-.68-1.177" transform="translate(-23.064 -27.578)" fill="none" stroke="#00B2A9" stroke-linejoin="round" stroke-width="1"/>
    <path id="Path_4672" data-name="Path 4672" d="M240.018,322.1l-.679,1.177a.986.986,0,1,0,1.708.986l.441-.764" transform="translate(-2.631 -27.578)" fill="none" stroke="#00B2A9" stroke-linejoin="round" stroke-width="1"/>
  </g>
</svg>
