<svg xmlns="http://www.w3.org/2000/svg" width="15.003" height="13.867" viewBox="0 0 15.003 13.867">
  <g id="Group_8717" data-name="Group 8717" transform="translate(0.413 0.4)">
    <path id="Path_6985" data-name="Path 6985" d="M-1736.833,160.991h2.272a1.136,1.136,0,0,1,1.136,1.136v9.658a1.136,1.136,0,0,1-1.136,1.136h-11.93a1.136,1.136,0,0,1-1.136-1.136v-9.658a1.136,1.136,0,0,1,1.136-1.136h2.272" transform="translate(1747.614 -159.855)" fill="none" stroke="#1a1818" stroke-linejoin="round" stroke-width="0.8"/>
    <line id="Line_848" data-name="Line 848" x2="5.223" transform="translate(4.611 0.868)" fill="none" stroke="#1a1818" stroke-linejoin="round" stroke-width="1"/>
    <line id="Line_849" data-name="Line 849" x2="13.348" transform="translate(-0.013 3.769)" fill="none" stroke="#1a1818" stroke-linecap="round" stroke-linejoin="round" stroke-width="0.8"/>
    <path id="Path_6986" data-name="Path 6986" d="M-1734.491,159.263a.568.568,0,0,1-.568.568.568.568,0,0,1-.568-.568v-1.7a.568.568,0,0,1,.568-.568.568.568,0,0,1,.568.568Z" transform="translate(1739.022 -156.991)" fill="none" stroke="#1a1818" stroke-linecap="round" stroke-linejoin="round" stroke-width="0.8"/>
    <path id="Path_6987" data-name="Path 6987" d="M-1712.491,159.263a.568.568,0,0,1-.568.568.568.568,0,0,1-.568-.568v-1.7a.568.568,0,0,1,.568-.568.568.568,0,0,1,.568.568Z" transform="translate(1723.272 -156.991)" fill="none" stroke="#1a1818" stroke-linecap="round" stroke-linejoin="round" stroke-width="0.8"/>
    <line id="Line_850" data-name="Line 850" x2="1.161" transform="translate(2.29 6.091)" fill="none" stroke="#1a1818" stroke-linecap="round" stroke-linejoin="round" stroke-width="0.8"/>
    <line id="Line_851" data-name="Line 851" x2="1.161" transform="translate(5.191 6.091)" fill="none" stroke="#1a1818" stroke-linecap="round" stroke-linejoin="round" stroke-width="0.8"/>
    <line id="Line_852" data-name="Line 852" x2="1.161" transform="translate(8.093 6.091)" fill="none" stroke="#1a1818" stroke-linecap="round" stroke-linejoin="round" stroke-width="0.8"/>
    <line id="Line_853" data-name="Line 853" x2="1.161" transform="translate(10.995 6.091)" fill="none" stroke="#1a1818" stroke-linecap="round" stroke-linejoin="round" stroke-width="0.8"/>
    <line id="Line_854" data-name="Line 854" x2="1.161" transform="translate(2.29 8.412)" fill="none" stroke="#1a1818" stroke-linecap="round" stroke-linejoin="round" stroke-width="0.8"/>
    <line id="Line_855" data-name="Line 855" x2="1.161" transform="translate(5.191 8.412)" fill="none" stroke="#1a1818" stroke-linecap="round" stroke-linejoin="round" stroke-width="0.8"/>
    <line id="Line_856" data-name="Line 856" x2="1.161" transform="translate(8.093 8.412)" fill="none" stroke="#1a1818" stroke-linecap="round" stroke-linejoin="round" stroke-width="0.8"/>
    <line id="Line_857" data-name="Line 857" x2="1.161" transform="translate(10.995 8.412)" fill="none" stroke="#1a1818" stroke-linecap="round" stroke-linejoin="round" stroke-width="0.8"/>
    <line id="Line_858" data-name="Line 858" x2="1.161" transform="translate(2.29 10.733)" fill="none" stroke="#1a1818" stroke-linecap="round" stroke-linejoin="round" stroke-width="0.8"/>
    <line id="Line_859" data-name="Line 859" x2="1.161" transform="translate(5.191 10.733)" fill="none" stroke="#1a1818" stroke-linecap="round" stroke-linejoin="round" stroke-width="0.8"/>
    <line id="Line_860" data-name="Line 860" x2="1.161" transform="translate(8.093 10.733)" fill="none" stroke="#1a1818" stroke-linecap="round" stroke-linejoin="round" stroke-width="0.8"/>
  </g>
</svg>
