<svg xmlns="http://www.w3.org/2000/svg" width="13.567" height="16.057" viewBox="0 0 13.567 16.057">
  <g id="Group_8762" data-name="Group 8762" transform="translate(0.25 0.25)">
    <path id="Path_7048" data-name="Path 7048" d="M2238.992,420.89h-13.067v-1.556a.934.934,0,0,1,.933-.934h11.2a.934.934,0,0,1,.933.934Z" transform="translate(-2225.925 -416.534)" fill="none" stroke="#afafaf" stroke-linejoin="round" stroke-width="0.5"/>
    <path id="Path_7049" data-name="Path 7049" d="M2239.976,431.767v8.712a1.245,1.245,0,0,1-1.245,1.244H2229.4a1.244,1.244,0,0,1-1.244-1.244v-8.712" transform="translate(-2227.531 -426.166)" fill="none" stroke="#afafaf" stroke-linecap="round" stroke-linejoin="round" stroke-width="0.5"/>
    <path id="Path_7050" data-name="Path 7050" d="M2241.519,413.585v-.933a.933.933,0,0,1,.933-.934h2.489a.934.934,0,0,1,.933.934v.933" transform="translate(-2237.162 -411.718)" fill="none" stroke="#afafaf" stroke-linejoin="round" stroke-width="0.5"/>
    <line id="Line_909" data-name="Line 909" y2="8.021" transform="translate(2.557 6.036)" fill="none" stroke="#afafaf" stroke-miterlimit="10" stroke-width="0.5"/>
    <line id="Line_910" data-name="Line 910" y2="8.021" transform="translate(4.556 6.036)" fill="none" stroke="#afafaf" stroke-miterlimit="10" stroke-width="0.5"/>
    <line id="Line_911" data-name="Line 911" y2="8.021" transform="translate(6.555 6.036)" fill="none" stroke="#afafaf" stroke-miterlimit="10" stroke-width="0.5"/>
    <line id="Line_912" data-name="Line 912" y2="8.021" transform="translate(8.555 6.036)" fill="none" stroke="#afafaf" stroke-miterlimit="10" stroke-width="0.5"/>
    <line id="Line_913" data-name="Line 913" y2="8.021" transform="translate(10.554 6.036)" fill="none" stroke="#afafaf" stroke-miterlimit="10" stroke-width="0.5"/>
  </g>
</svg>
