<svg xmlns="http://www.w3.org/2000/svg" width="17.963" height="17.963" viewBox="0 0 17.963 17.963">
  <g id="Group_8735" data-name="Group 8735" transform="translate(-647.601 -603.6)">
    <path id="Path_4672" data-name="Path 4672" d="M255.115,171.227c0,.73-.94,1.327-1.12,2-.186.7.324,1.682-.029,2.292s-1.47.668-1.972,1.17-.551,1.614-1.17,1.972-1.6-.157-2.292.029c-.673.18-1.27,1.119-2,1.119s-1.327-.94-2-1.119c-.7-.186-1.682.324-2.292-.029s-.668-1.47-1.17-1.972-1.614-.551-1.972-1.169.157-1.6-.029-2.292c-.18-.673-1.119-1.27-1.119-2s.94-1.327,1.119-2c.186-.7-.324-1.682.029-2.292s1.47-.667,1.972-1.17.551-1.613,1.169-1.971,1.6.157,2.292-.029c.673-.18,1.27-1.12,2-1.12s1.327.94,2,1.12c.7.186,1.682-.324,2.292.029s.667,1.469,1.17,1.971,1.613.551,1.971,1.17-.157,1.6.029,2.292C254.175,169.9,255.115,170.5,255.115,171.227Z" transform="translate(410.049 441.355)" fill="none" stroke="#1a1818" stroke-linecap="round" stroke-linejoin="round" stroke-width="0.8"/>
    <path id="Path_4675" data-name="Path 4675" d="M252.544,179.914l-2.512,1.388.48-2.945-2.032-2.08,2.807-.429,1.258-2.677,1.258,2.677,2.807.429-2.032,2.08.48,2.945Z" transform="translate(404.039 435.345)" fill="none" stroke="#1a1818" stroke-linecap="round" stroke-linejoin="round" stroke-width="0.8"/>
  </g>
</svg>
