<svg xmlns="http://www.w3.org/2000/svg" width="40" height="23" viewBox="0 0 80.735 45.693">
  <g id="Group_2037" data-name="Group 2037" transform="translate(-139.18 -149.114)">
    <rect id="Rectangle_842" data-name="Rectangle 842" width="12.501" height="43.693" rx="4.005" transform="translate(152.542 150.114)" fill="none" stroke="#00B2A9" stroke-miterlimit="10" stroke-width="2"/>
    <rect id="Rectangle_843" data-name="Rectangle 843" width="8.039" height="30.269" rx="2.576" transform="translate(144.504 156.826)" fill="none" stroke="#00B2A9" stroke-miterlimit="10" stroke-width="2"/>
    <path id="Rectangle_844" data-name="Rectangle 844" d="M2.059,0H4.324a0,0,0,0,1,0,0V6.426a0,0,0,0,1,0,0H2.059A2.059,2.059,0,0,1,0,4.367V2.059A2.059,2.059,0,0,1,2.059,0Z" transform="translate(140.18 168.747)" fill="none" stroke="#00B2A9" stroke-miterlimit="10" stroke-width="2"/>
    <path id="Rectangle_845" data-name="Rectangle 845" d="M4.005,0H8.5A4.006,4.006,0,0,1,12.5,4.006V39.687A4.006,4.006,0,0,1,8.5,43.693H4.005A4.005,4.005,0,0,1,0,39.687V4.005A4.005,4.005,0,0,1,4.005,0Z" transform="translate(206.552 193.807) rotate(180)" fill="none" stroke="#00B2A9" stroke-miterlimit="10" stroke-width="2"/>
    <rect id="Rectangle_846" data-name="Rectangle 846" width="8.039" height="30.269" rx="2.576" transform="translate(214.59 187.094) rotate(180)" fill="none" stroke="#231f20" stroke-miterlimit="10" stroke-width="2"/>
    <path id="Rectangle_847" data-name="Rectangle 847" d="M2.059,0H4.324a0,0,0,0,1,0,0V6.426a0,0,0,0,1,0,0H2.059A2.059,2.059,0,0,1,0,4.367V2.059A2.059,2.059,0,0,1,2.059,0Z" transform="translate(218.914 175.173) rotate(180)" fill="none" stroke="#00B2A9" stroke-miterlimit="10" stroke-width="2"/>
    <rect id="Rectangle_848" data-name="Rectangle 848" width="29.007" height="7.625" transform="translate(165.044 168.148)" fill="none" stroke="#00B2A9" stroke-miterlimit="10" stroke-width="2"/>
  </g>
</svg>
