<svg xmlns="http://www.w3.org/2000/svg" width="25.317" height="20.997" viewBox="0 0 25.317 20.997">
  <g id="Group_7904" data-name="Group 7904" transform="translate(-553.932 -485.891)">
    <path id="Path_1881" data-name="Path 1881" d="M629,504.24c.077-.451.13-.908.234-1.352a8.677,8.677,0,0,1,3.495-5.124,9.54,9.54,0,0,1,3.052-1.482c.069-.019.135-.047.237-.083a5.365,5.365,0,0,1-2.676-5.086,5.213,5.213,0,0,1,1.924-3.724,5.39,5.39,0,1,1,6.155,8.8c.408.146.815.27,1.205.435a9.108,9.108,0,0,1,5.475,5.89,8.523,8.523,0,0,1,.323,2.439c0,.371.011.743,0,1.114a.525.525,0,0,1-.448.548.5.5,0,0,1-.572-.3,1.617,1.617,0,0,1-.058-.428c-.051-.836-.042-1.681-.161-2.507a6.463,6.463,0,0,0-1.391-3.074,8.579,8.579,0,0,0-5.883-3.286,8.935,8.935,0,0,0-6.614,1.666,7.465,7.465,0,0,0-3.157,5.288c-.083.686-.04,1.387-.061,2.08-.012.412-.337.683-.689.542-.152-.061-.257-.242-.384-.368Zm5.393-12.739a4.313,4.313,0,1,0,4.4-4.275A4.335,4.335,0,0,0,634.393,491.5Z" transform="translate(-74.818)" fill="#868686" stroke="#868686" stroke-width="0.5"/>
    <path id="Path_1882" data-name="Path 1882" d="M896.05,528.084a19.478,19.478,0,0,1,1.841.961,6.808,6.808,0,0,1,3.264,5.874c0,.291,0,.582,0,.872a.553.553,0,0,1-.551.607c-.31-.01-.505-.246-.522-.611a14.811,14.811,0,0,0-.121-2,5.774,5.774,0,0,0-2.842-3.968,6.723,6.723,0,0,0-3.31-.963l-.121-.006c-.388-.022-.621-.224-.622-.539s.232-.518.619-.542a3.233,3.233,0,0,0,.241-6.45c-.113-.011-.226-.017-.338-.03a.544.544,0,0,1-.52-.559.538.538,0,0,1,.574-.506,4.7,4.7,0,0,1,.912.106,4.3,4.3,0,0,1,2.845,6.243,4.118,4.118,0,0,1-1.229,1.414C896.12,528.022,896.073,528.065,896.05,528.084Z" transform="translate(-322.16 -31.92)" fill="#868686" stroke="#868686" stroke-width="0.5"/>
  </g>
</svg>
