<svg xmlns="http://www.w3.org/2000/svg" width="17.656" height="16.038" viewBox="0 0 17.656 16.038">
  <g id="line_icons" data-name="line icons" transform="translate(-2 -5.208)">
    <path id="Path_56974" data-name="Path 56974" d="M22.654,13.538a.255.255,0,0,1-.118-.029.252.252,0,0,1-.134-.223V11.81a4.969,4.969,0,1,0-9.938,0v1.476a.252.252,0,0,1-.394.208.522.522,0,0,0-.3-.089H11.4a.933.933,0,0,0-.252.033.252.252,0,0,1-.32-.243V11.81a6.6,6.6,0,1,1,13.2,0V13.2a.252.252,0,0,1-.32.243.941.941,0,0,0-.252-.033h-.375a.517.517,0,0,0-.292.089A.252.252,0,0,1,22.654,13.538ZM11.4,12.9h.372a1.054,1.054,0,0,1,.185.016V11.81a5.473,5.473,0,1,1,10.947,0v1.107a1.043,1.043,0,0,1,.182-.016h.375l.067,0V11.81a6.1,6.1,0,1,0-12.195,0V12.9Z" transform="translate(-6.604)"/>
    <path id="Path_56975" data-name="Path 56975" d="M3.6,43.454a1.6,1.6,0,0,1-1.6-1.6v-.894a1.6,1.6,0,0,1,1.6-1.6.252.252,0,0,1,0,.5A1.1,1.1,0,0,0,2.5,40.961v.894A1.1,1.1,0,0,0,3.6,42.949a.252.252,0,0,1,0,.5Z" transform="translate(0 -25.54)"/>
    <path id="Path_56976" data-name="Path 56976" d="M9.03,41.639H8.753A1.586,1.586,0,0,1,7.16,40.145v-2.95a1.5,1.5,0,0,1,1.5-1.495H9.03a1.042,1.042,0,0,1,1.041,1.041V40.6A1.042,1.042,0,0,1,9.03,41.639ZM8.655,36.2a.991.991,0,0,0-.99.99v2.951a1.085,1.085,0,0,0,1.088.99h.277a.537.537,0,0,0,.535-.537V36.741A.537.537,0,0,0,9.03,36.2Z" transform="translate(-3.858 -22.801)"/>
    <path id="Path_56977" data-name="Path 56977" d="M56.617,41.639h-.276A1.042,1.042,0,0,1,55.3,40.6V36.741A1.042,1.042,0,0,1,56.34,35.7h.375a1.5,1.5,0,0,1,1.494,1.494v2.852A1.594,1.594,0,0,1,56.617,41.639ZM56.341,36.2a.537.537,0,0,0-.536.537V40.6a.537.537,0,0,0,.536.536h.276a1.089,1.089,0,0,0,1.088-1.088V37.195a.991.991,0,0,0-.99-.991Z" transform="translate(-39.856 -22.801)"/>
    <path id="Path_56978" data-name="Path 56978" d="M64.915,43.454a.252.252,0,0,1,0-.5,1.1,1.1,0,0,0,1.094-1.094v-.894a1.1,1.1,0,0,0-1.094-1.094.252.252,0,0,1,0-.5,1.6,1.6,0,0,1,1.6,1.6v.894A1.6,1.6,0,0,1,64.915,43.454Z" transform="translate(-46.857 -25.54)"/>
    <path id="Path_56979" data-name="Path 56979" d="M46.189,59.229h-3.22a.252.252,0,1,1,0-.5h3.22a1.185,1.185,0,0,0,1.185-1.181V57.5a.252.252,0,0,1,.5,0v.045A1.69,1.69,0,0,1,46.189,59.229Z" transform="translate(-30.447 -38.912)"/>
    <path id="Path_56980" data-name="Path 56980" d="M34.329,61.787a1.215,1.215,0,1,1,1.5-1.181A1.37,1.37,0,0,1,34.329,61.787Zm0-1.858c-.539,0-.994.31-.994.677s.454.677.994.677.994-.31.994-.677S34.868,59.929,34.329,59.929Z" transform="translate(-23.054 -40.542)"/>
  </g>
</svg>
