<svg xmlns="http://www.w3.org/2000/svg" width="18.906" height="16.543" viewBox="0 0 18.906 16.543">
  <path id="headphones-alt" d="M5.908,41.453H5.317a2.365,2.365,0,0,0-2.363,2.368v2.354a2.365,2.365,0,0,0,2.363,2.368h.591A1.183,1.183,0,0,0,7.09,47.359V42.637A1.183,1.183,0,0,0,5.908,41.453Zm7.681,0H13a1.183,1.183,0,0,0-1.182,1.184v4.722A1.183,1.183,0,0,0,13,48.543h.591a2.365,2.365,0,0,0,2.363-2.368V43.821A2.365,2.365,0,0,0,13.589,41.453ZM9.453,32A9.633,9.633,0,0,0,0,41.453v4.136a.591.591,0,0,0,.591.591h.591a.591.591,0,0,0,.591-.591V41.453a7.681,7.681,0,0,1,15.361,0v4.136a.591.591,0,0,0,.591.591h.591a.591.591,0,0,0,.591-.591V41.453A9.633,9.633,0,0,0,9.453,32Z" transform="translate(0 -32)" fill="#00b2a9"/>
</svg>
