<svg xmlns="http://www.w3.org/2000/svg" width="10.379" height="10.379" viewBox="0 0 10.379 10.379">
  <path id="info-circle" d="M13.19,8a5.19,5.19,0,1,0,5.19,5.19A5.19,5.19,0,0,0,13.19,8Zm0,2.3a.879.879,0,1,1-.879.879A.879.879,0,0,1,13.19,10.3Zm1.172,5.315a.251.251,0,0,1-.251.251H12.269a.251.251,0,0,1-.251-.251v-.5a.251.251,0,0,1,.251-.251h.251V13.525h-.251a.251.251,0,0,1-.251-.251v-.5a.251.251,0,0,1,.251-.251h1.339a.251.251,0,0,1,.251.251v2.093h.251a.251.251,0,0,1,.251.251Z" transform="translate(-8 -8)" fill="#f01c62"/>
</svg>
