<svg xmlns="http://www.w3.org/2000/svg" width="104.99" height="100.389" viewBox="0 0 104.99 100.389">
  <g id="Group_7232" data-name="Group 7232" transform="translate(1.271 0)">
    <rect id="Rectangle_3266" data-name="Rectangle 3266" width="70.985" height="70.986" transform="translate(1.034 50.194) rotate(-45)" fill="#f6921e" opacity="0.5"/>
    <g id="Group_7231" data-name="Group 7231" transform="translate(0 27.166)">
      <path id="Path_4587" data-name="Path 4587" d="M5375.609,166.141s23.055-10.157,41.6-8.223l-.483,24.184" transform="translate(-5366.017 -157.674)" fill="none" stroke="#231f20" stroke-miterlimit="10" stroke-width="2"/>
      <path id="Path_4588" data-name="Path 4588" d="M5481.915,157.755s25.116,1.966,40.532,12.447l-8.186,20.651" transform="translate(-5424.379 -157.718)" fill="none" stroke="#231f20" stroke-miterlimit="10" stroke-width="2"/>
      <path id="Path_4589" data-name="Path 4589" d="M5405.206,173.27s-23.619-2.338-50.866,14.026l9.915,22.41" transform="translate(-5354.34 -166.173)" fill="none" stroke="#231f20" stroke-miterlimit="10" stroke-width="2"/>
      <path id="Path_4590" data-name="Path 4590" d="M5480.711,173.4s18.138-.887,45.464,13.865l-9.109,22.571" transform="translate(-5423.719 -166.301)" fill="none" stroke="#231f20" stroke-miterlimit="10" stroke-width="2"/>
      <line id="Line_299" data-name="Line 299" x2="11.468" y2="32.909" transform="translate(23.634 10.568)" fill="none" stroke="#231f20" stroke-miterlimit="10" stroke-width="2"/>
      <line id="Line_300" data-name="Line 300" x1="11.468" y2="32.909" transform="translate(66.765 10.693)" fill="none" stroke="#231f20" stroke-miterlimit="10" stroke-width="2"/>
      <path id="Path_4591" data-name="Path 4591" d="M5389.737,242.848l-2.618-7.23,7.979-1.995,3.614,8.851" transform="translate(-5372.336 -199.371)" fill="none" stroke="#231f20" stroke-miterlimit="10" stroke-width="2"/>
      <path id="Path_4592" data-name="Path 4592" d="M5531.533,242.848l2.618-7.23-7.979-1.995-3.615,8.851" transform="translate(-5446.692 -199.371)" fill="none" stroke="#231f20" stroke-miterlimit="10" stroke-width="2"/>
      <path id="Path_4593" data-name="Path 4593" d="M5447.652,238.019V225.055h16.206v12.964" transform="translate(-5405.569 -194.667)" fill="none" stroke="#231f20" stroke-miterlimit="10" stroke-width="2"/>
      <line id="Line_301" data-name="Line 301" x2="99.179" transform="translate(1.196 43.602)" fill="none" stroke="#231f20" stroke-miterlimit="10" stroke-width="2"/>
    </g>
  </g>
</svg>
