<svg xmlns="http://www.w3.org/2000/svg" width="40.93" height="49.979" viewBox="0 0 40.93 49.979"><g transform="translate(-170.082 -118.178)"><path d="M245.07,185.793h9.318a5.036,5.036,0,0,0,4.565-2.91l1.27-5.147" transform="translate(-56.504 -44.615)" fill="none" stroke="#343844" stroke-miterlimit="10" stroke-width="2"/><path d="M179.886,203.068l.064-7.7a6.255,6.255,0,0,0-2.593-5.223,14.56,14.56,0,0,1-6.274-11.982v-6.026a7.1,7.1,0,0,1,7.1-7.1h4.331a7.1,7.1,0,0,1,7.1,7.1v.593a5.832,5.832,0,0,1-3.563,5.427c-2.477,1.01-6.212,1.481-11.1-.853" transform="translate(0 -34.919)" fill="none" stroke="#343844" stroke-miterlimit="10" stroke-width="2"/><path d="M184,131.557c-.485-14.033,19.93-13.677,27.81-10.268a13.167,13.167,0,0,1,8.06,11.49v10.462a14.542,14.542,0,0,1-5,10.985,6.208,6.208,0,0,0-2.033,4.7l0,9.225" transform="translate(-9.858)" fill="none" stroke="#343844" stroke-miterlimit="10" stroke-width="2"/><line x2="23.074" transform="translate(179.907 165.02)" fill="none" stroke="#343844" stroke-miterlimit="10" stroke-width="2"/><line x2="24.345" transform="translate(178.814 156.7)" fill="none" stroke="#343844" stroke-miterlimit="10" stroke-width="2"/><path d="M240.272,277.519h-6.639a4.16,4.16,0,0,0-4.16,4.16h0a4.16,4.16,0,0,0,4.16,4.16h7.1" transform="translate(-44.593 -120.819)" fill="none" stroke="#343844" stroke-miterlimit="10" stroke-width="2"/><line x2="2.325" transform="translate(188.566 160.86)" fill="none" stroke="#343844" stroke-miterlimit="10" stroke-width="2"/><line x2="2.325" transform="translate(193.217 160.86)" fill="none" stroke="#343844" stroke-miterlimit="10" stroke-width="2"/></g></svg>