<svg id="Group_7782" data-name="Group 7782" xmlns="http://www.w3.org/2000/svg" xmlns:xlink="http://www.w3.org/1999/xlink" width="18.137" height="18.144" viewBox="0 0 18.137 18.144">
  <defs>
    <clipPath id="clip-path">
      <rect id="Rectangle_3152" data-name="Rectangle 3152" width="18.137" height="18.144" fill="#00b2a9"/>
    </clipPath>
  </defs>
  <g id="Group_6650" data-name="Group 6650" clip-path="url(#clip-path)">
    <path id="Path_4500" data-name="Path 4500" d="M8.469,18.088a1.753,1.753,0,0,0,.6.053,1.61,1.61,0,0,0,.6-.053c.6-.236,1.332-.881,2.2-1.315a14.141,14.141,0,0,1,2.226-.466,3.289,3.289,0,0,0,2.354-3.15,2.49,2.49,0,0,1,.733-1.767,3.287,3.287,0,0,0,0-4.645,2.482,2.482,0,0,1-.733-1.767,3.291,3.291,0,0,0-3.286-3.286A2.49,2.49,0,0,1,11.391.961a3.287,3.287,0,0,0-4.645,0,2.482,2.482,0,0,1-1.767.733A3.291,3.291,0,0,0,1.694,4.979,2.47,2.47,0,0,1,.961,6.746a3.293,3.293,0,0,0,0,4.649,2.481,2.481,0,0,1,.733,1.767,3.289,3.289,0,0,0,2.354,3.15,21.775,21.775,0,0,1,2.142.566c.561.225,1.672.992,2.279,1.21m8.149-7.251a3.263,3.263,0,0,0-.961,2.325,2.5,2.5,0,0,1-1.99,2.446l-.126.019c-.068.01-.126.019-.189.024s-.131.01-.194.01a3.3,3.3,0,0,0-.956.141,3.24,3.24,0,0,0-1.364.82,2.45,2.45,0,0,1-.209.184c-.024.019-.049.034-.073.053a1.749,1.749,0,0,1-.155.107c-.024.015-.053.034-.083.049-.058.034-.116.063-.175.092a.449.449,0,0,0-.068.034,2.109,2.109,0,0,1-.223.087l-.049.019-.029.01a2.551,2.551,0,0,1-1.4,0l-.039-.01-.039-.015c-.078-.024-.155-.058-.233-.087L8,17.118c-.063-.029-.121-.063-.18-.1l-.073-.044a1.956,1.956,0,0,1-.165-.112.535.535,0,0,1-.063-.049c-.073-.058-.141-.121-.209-.184a3.269,3.269,0,0,0-1.364-.82,3.3,3.3,0,0,0-.956-.141c-.068,0-.131,0-.194-.01s-.121-.015-.189-.024l-.126-.019a2.5,2.5,0,0,1-1.99-2.446,3.263,3.263,0,0,0-.961-2.325,2.5,2.5,0,0,1,0-3.533A3.263,3.263,0,0,0,2.49,4.989,2.5,2.5,0,0,1,4.984,2.495a3.263,3.263,0,0,0,2.325-.961,2.507,2.507,0,0,1,3.533,0,3.263,3.263,0,0,0,2.325.961,2.5,2.5,0,0,1,2.495,2.495,3.263,3.263,0,0,0,.961,2.325,2.491,2.491,0,0,1,0,3.523" transform="translate(0)" fill="#00b2a9"/>
    <path id="Path_4501" data-name="Path 4501" d="M70.916,65.1a5.914,5.914,0,1,0,5.916,5.911A5.924,5.924,0,0,0,70.916,65.1m0,11.036a5.125,5.125,0,1,1,5.125-5.125,5.133,5.133,0,0,1-5.125,5.125" transform="translate(-61.845 -61.941)" fill="#00b2a9"/>
    <path id="Path_4502" data-name="Path 4502" d="M113.827,103.8l-.878,2.708H110.1l2.305,1.674-.878,2.708,2.305-1.674,2.305,1.674-.883-2.708,2.305-1.674h-2.849Zm.806,5.028-.806-.587-.806.587.306-.946-.806-.587h.995l.306-.946.306.946h.995l-.806.587Z" transform="translate(-104.757 -98.762)" fill="#00b2a9"/>
  </g>
</svg>
