<svg xmlns="http://www.w3.org/2000/svg" width="114.221" height="58.725" viewBox="0 0 114.221 58.725">
  <g id="Group_7281" data-name="Group 7281" transform="translate(2.808 1.014)">
    <g id="Group_7134" data-name="Group 7134" transform="translate(0 0)">
      <g id="Group_7132" data-name="Group 7132" transform="translate(41.37 5.85)">
        <path id="Path_4564" data-name="Path 4564" d="M-1001.391,167.794l22.477-20.054,22.557,18.746" transform="translate(1025.76 -147.741)" fill="none" stroke="#00b2a9" stroke-miterlimit="10" stroke-width="2"/>
        <line id="Line_243" data-name="Line 243" x2="67.469" transform="translate(0 50.861)" fill="none" stroke="#00b2a9" stroke-miterlimit="10" stroke-width="2"/>
        <g id="Group_7131" data-name="Group 7131" transform="translate(31.206 20.199)">
          <line id="Line_244" data-name="Line 244" y2="30.226" transform="translate(0 0.581)" fill="none" stroke="#00b2a9" stroke-miterlimit="10" stroke-width="2"/>
          <line id="Line_245" data-name="Line 245" y2="30.226" transform="translate(31.358 0.581)" fill="none" stroke="#00b2a9" stroke-miterlimit="10" stroke-width="2"/>
          <path id="Path_4565" data-name="Path 4565" d="M-960.045,247.928V235.721h9.393v12.207" transform="translate(971.372 -217.266)" fill="none" stroke="#00b2a9" stroke-miterlimit="10" stroke-width="2"/>
          <rect id="Rectangle_3231" data-name="Rectangle 3231" width="9.394" height="7.048" transform="translate(11.328)" fill="none" stroke="#00b2a9" stroke-miterlimit="10" stroke-width="2"/>
        </g>
      </g>
      <line id="Line_246" data-name="Line 246" y1="13.597" transform="translate(14.277 27.463)" fill="none" stroke="#00b2a9" stroke-miterlimit="10" stroke-width="2"/>
      <line id="Line_247" data-name="Line 247" x2="3.999" y2="2.239" transform="translate(10.251 31.276)" fill="none" stroke="#00b2a9" stroke-miterlimit="10" stroke-width="2"/>
      <path id="Path_4566" data-name="Path 4566" d="M-1136.325,185.53s-12.712-.782-5.867-12.256c0,0-3-8.149,3.847-9.844,0,0-2.087-5.867,2.868-7.171,0,0,4.629-1.369,6.062,3.977,0,0,8.41,1.043,4.433,9.257,0,0,5.8,2.021,4.042,8.8,0,0-1.825,4.694-6.584,4.629" transform="translate(1147.205 -146.579)" fill="none" stroke="#00b2a9" stroke-miterlimit="10" stroke-width="2"/>
      <path id="Path_4567" data-name="Path 4567" d="M-1109.341,141.955a4.793,4.793,0,0,1,4.563-4.564s.847-3.325,3.846-2.934a3.617,3.617,0,0,1,2.673,4.824s5.345,2.869,2.347,7.432c0,0,3.259,2.282,1.955,5.932a5.237,5.237,0,0,1-5.8,3.586" transform="translate(1127.652 -134.426)" fill="none" stroke="#00b2a9" stroke-miterlimit="10" stroke-width="2"/>
      <path id="Path_4568" data-name="Path 4568" d="M-1127.263,217.394l-12.837,10.138h-10.917l12.357-10.078h22.915V199.938h6.439v1.32" transform="translate(1151.018 -171.155)" fill="none" stroke="#00b2a9" stroke-miterlimit="10" stroke-width="2"/>
      <line id="Line_248" data-name="Line 248" y2="10.498" transform="translate(23.454 46.359)" fill="none" stroke="#00b2a9" stroke-miterlimit="10" stroke-width="2"/>
      <line id="Line_249" data-name="Line 249" y2="10.498" transform="translate(35.272 46.359)" fill="none" stroke="#00b2a9" stroke-miterlimit="10" stroke-width="2"/>
      <line id="Line_250" data-name="Line 250" y1="27.953" transform="translate(41.71 28.903)" fill="none" stroke="#00b2a9" stroke-miterlimit="10" stroke-width="2"/>
      <g id="Group_7133" data-name="Group 7133" transform="translate(35.012 34.741)">
        <line id="Line_251" data-name="Line 251" x2="6.478" transform="translate(0.3)" fill="none" stroke="#00b2a9" stroke-miterlimit="10" stroke-width="2"/>
        <line id="Line_252" data-name="Line 252" x2="6.478" transform="translate(0 5.819)" fill="none" stroke="#00b2a9" stroke-miterlimit="10" stroke-width="2"/>
        <line id="Line_253" data-name="Line 253" x2="6.478" transform="translate(0 11.637)" fill="none" stroke="#00b2a9" stroke-miterlimit="10" stroke-width="2"/>
        <line id="Line_254" data-name="Line 254" x2="6.423" transform="translate(0.294 17.158)" fill="none" stroke="#00b2a9" stroke-miterlimit="10" stroke-width="2"/>
      </g>
      <path id="Path_4569" data-name="Path 4569" d="M-963.058,154.518" transform="translate(1045.638 -145.691)" fill="none" stroke="#00b2a9" stroke-miterlimit="10" stroke-width="2"/>
    </g>
      </g>
</svg>
