<svg xmlns="http://www.w3.org/2000/svg" width="14.76" height="18.45" viewBox="0 0 14.76 18.45">
  <path id="cash-payment" d="M67.688,30.605v3.538A.308.308,0,0,0,68,34.45H78.45a.308.308,0,0,0,.308-.308v-7.38a1.543,1.543,0,0,0-.181-.724L76.3,21.766V16.308A.308.308,0,0,0,75.99,16H68a.308.308,0,0,0-.308.308v1.079l-3.474,1.088a.308.308,0,0,0-.2.385ZM67.3,20.087l-.184-.587.576-.18v5.108l-1.18-3.771.587-.184A.308.308,0,0,0,67.3,20.087Zm10.847,6.676v7.073H76.3a2.771,2.771,0,0,1-2.767-2.709.307.307,0,0,0-.047-.23l-1.995-2.952a.923.923,0,1,1,1.529-1.033l.006.008,1.8,2.484a.307.307,0,0,0,.249.127h.923a.308.308,0,0,0,.308-.308v-6.15l1.737,3.256A.926.926,0,0,1,78.143,26.763Zm-8,4.92h-.615V18.768h.615a.308.308,0,0,0,.308-.308v-.615H73.53v.615a.308.308,0,0,0,.308.308h.615v9.079l-.928-1.285a1.551,1.551,0,0,0-.118-.152,1.845,1.845,0,1,0-2.512.3,1.542,1.542,0,0,0,.086,1.58l1.937,2.867a3.359,3.359,0,0,0,.369,1.451H70.455V31.99A.308.308,0,0,0,70.148,31.683Zm1.245-5.53c-.037.025-.072.051-.106.079a1.23,1.23,0,1,1,1.628-.192,1.538,1.538,0,0,0-1.522.113ZM68.3,16.615h7.38v12.3h-.458l-.157-.218V18.46a.308.308,0,0,0-.308-.308h-.615v-.615a.308.308,0,0,0-.308-.308h-3.69a.308.308,0,0,0-.308.308v.615h-.615a.308.308,0,0,0-.308.308V31.99a.308.308,0,0,0,.308.308h.615v.615a.308.308,0,0,0,.308.308h3.544a3.41,3.41,0,0,0,.665.615H68.3Zm-.615,1.416v.644L66.635,19a.308.308,0,0,0-.2.385l.184.587-.587.184a.308.308,0,0,0-.2.385l1.859,5.94v2.06l-3-9.577Z" transform="translate(-63.997 -16)" fill="#1a1818"/>
</svg>
