<svg xmlns="http://www.w3.org/2000/svg" width="15.504" height="13.077" viewBox="0 0 15.504 13.077">
  <g id="Group_8718" data-name="Group 8718" transform="translate(0.4 0.4)">
    <g id="Group_7958" data-name="Group 7958" transform="translate(0 0)">
      <rect id="Rectangle_3428" data-name="Rectangle 3428" width="6.808" height="1.47" rx="0.39" fill="none" stroke="#1a1818" stroke-miterlimit="10" stroke-width="0.8"/>
      <path id="Rectangle_3429" data-name="Rectangle 3429" d="M0,0H5.864a0,0,0,0,1,0,0V3.4a.243.243,0,0,1-.243.243H.243A.243.243,0,0,1,0,3.4V0A0,0,0,0,1,0,0Z" transform="translate(0.472 1.47)" fill="none" stroke="#1a1818" stroke-miterlimit="10" stroke-width="0.8"/>
    </g>
    <g id="Group_7959" data-name="Group 7959" transform="translate(7.896 0)">
      <rect id="Rectangle_3430" data-name="Rectangle 3430" width="6.808" height="1.47" rx="0.39" fill="none" stroke="#1a1818" stroke-miterlimit="10" stroke-width="0.8"/>
      <path id="Rectangle_3431" data-name="Rectangle 3431" d="M0,0H5.864a0,0,0,0,1,0,0V3.4a.243.243,0,0,1-.243.243H.243A.243.243,0,0,1,0,3.4V0A0,0,0,0,1,0,0Z" transform="translate(0.472 1.47)" fill="none" stroke="#1a1818" stroke-miterlimit="10" stroke-width="0.8"/>
    </g>
    <g id="Group_7960" data-name="Group 7960" transform="translate(0 7.169)">
      <rect id="Rectangle_3432" data-name="Rectangle 3432" width="6.808" height="1.47" rx="0.39" fill="none" stroke="#1a1818" stroke-miterlimit="10" stroke-width="0.8"/>
      <path id="Rectangle_3433" data-name="Rectangle 3433" d="M0,0H5.864a0,0,0,0,1,0,0V3.4a.243.243,0,0,1-.243.243H.243A.243.243,0,0,1,0,3.4V0A0,0,0,0,1,0,0Z" transform="translate(0.472 1.47)" fill="none" stroke="#1a1818" stroke-miterlimit="10" stroke-width="0.8"/>
    </g>
    <g id="Group_7961" data-name="Group 7961" transform="translate(7.896 7.169)">
      <rect id="Rectangle_3434" data-name="Rectangle 3434" width="6.808" height="1.47" rx="0.39" fill="none" stroke="#1a1818" stroke-miterlimit="10" stroke-width="0.8"/>
      <path id="Rectangle_3435" data-name="Rectangle 3435" d="M0,0H5.864a0,0,0,0,1,0,0V3.4a.243.243,0,0,1-.243.243H.243A.243.243,0,0,1,0,3.4V0A0,0,0,0,1,0,0Z" transform="translate(0.472 1.47)" fill="none" stroke="#1a1818" stroke-miterlimit="10" stroke-width="0.8"/>
    </g>
  </g>
</svg>
