<svg xmlns="http://www.w3.org/2000/svg" width="17.839" height="20.465" viewBox="0 0 17.839 20.465">
  <g id="Group_8748" data-name="Group 8748" transform="translate(20090.234 22209.789)">
    <g id="Group_8506" data-name="Group 8506" transform="translate(-20089.834 -22207.992)">
      <path id="Path_7065" data-name="Path 7065" d="M2848.052,181.016a1.74,1.74,0,0,0,1.74-1.74v-4.35a1.532,1.532,0,0,0-1.048-1.452l-1.127-.288-1.74,1.74-1.74-1.74-1.128.288a1.533,1.533,0,0,0-1.047,1.452v4.35a1.74,1.74,0,0,0,1.74,1.74" transform="translate(-2841.963 -168.837)" fill="none" stroke="#1a1818" stroke-linejoin="round" stroke-width="0.8"/>
      <circle id="Ellipse_352" data-name="Ellipse 352" cx="1.74" cy="1.74" r="1.74" transform="translate(2.175 0)" fill="none" stroke="#1a1818" stroke-linejoin="round" stroke-width="0.8"/>
      <path id="Path_7066" data-name="Path 7066" d="M2851.347,180.739v11.309H2847V180.739" transform="translate(-2845.258 -173.779)" fill="none" stroke="#1a1818" stroke-linecap="round" stroke-linejoin="round" stroke-width="0.8"/>
      <line id="Line_920" data-name="Line 920" y2="6.96" transform="translate(3.915 11.309)" fill="none" stroke="#1a1818" stroke-linecap="round" stroke-linejoin="round" stroke-width="0.8"/>
    </g>
    <g id="Group_8509" data-name="Group 8509" transform="translate(-20079.9 -22209.389)">
      <path id="Path_7065-2" data-name="Path 7065" d="M2847.489,180.292a1.579,1.579,0,0,0,1.579-1.579v-3.947a1.39,1.39,0,0,0-.951-1.318l-1.023-.261-1.579,1.579-1.579-1.579-1.023.261a1.391,1.391,0,0,0-.951,1.318v3.947a1.579,1.579,0,0,0,1.579,1.579" transform="translate(-2841.963 -169.24)" fill="none" stroke="#1a1818" stroke-linejoin="round" stroke-width="0.8"/>
      <circle id="Ellipse_352-2" data-name="Ellipse 352" cx="1.579" cy="1.579" r="1.579" transform="translate(1.974 0)" fill="none" stroke="#1a1818" stroke-linejoin="round" stroke-width="0.8"/>
      <path id="Path_7066-2" data-name="Path 7066" d="M2850.945,180.739V191H2847V180.739" transform="translate(-2845.418 -174.423)" fill="none" stroke="#1a1818" stroke-linecap="round" stroke-linejoin="round" stroke-width="0.8"/>
      <line id="Line_920-2" data-name="Line 920" y2="6.316" transform="translate(3.553 10.263)" fill="none" stroke="#1a1818" stroke-linecap="round" stroke-linejoin="round" stroke-width="0.8"/>
    </g>
  </g>
</svg>
