<svg xmlns="http://www.w3.org/2000/svg" width="17.131" height="17.132" viewBox="0 0 17.131 17.132">
  <g id="Group_8201" data-name="Group 8201" transform="translate(0.25 0.25)">
    <path id="Path_7042" data-name="Path 7042" d="M1593.157,280.859a7.945,7.945,0,0,0-7.945,7.944" transform="translate(-1585.213 -280.859)" fill="none" stroke="#1a1818" stroke-linecap="round" stroke-linejoin="round" stroke-width="0.5"/>
    <path id="Path_7043" data-name="Path 7043" d="M1597.307,287.175a5.778,5.778,0,0,0-5.778,5.778" transform="translate(-1589.362 -285.008)" fill="none" stroke="#1a1818" stroke-linecap="round" stroke-linejoin="round" stroke-width="0.5"/>
    <path id="Path_7044" data-name="Path 7044" d="M1601.456,293.491a3.611,3.611,0,0,0-3.611,3.611" transform="translate(-1593.512 -289.158)" fill="none" stroke="#1a1818" stroke-linecap="round" stroke-linejoin="round" stroke-width="0.5"/>
    <path id="Path_7045" data-name="Path 7045" d="M1599.067,294.713c3.751-3.751,5.223-8.361,3.288-10.3a14.49,14.49,0,0,0-1.646-1.31.768.768,0,0,0-1.094.217l-2.305,3.658a.769.769,0,0,0,.255,1.069l1.352.811a.768.768,0,0,1,.238,1.1,23.73,23.73,0,0,1-4.84,4.84.768.768,0,0,1-1.1-.238l-.811-1.352a.769.769,0,0,0-1.069-.255l-3.658,2.306a.768.768,0,0,0-.218,1.094,14.476,14.476,0,0,0,1.31,1.646C1590.706,299.936,1595.316,298.464,1599.067,294.713Z" transform="translate(-1586.596 -282.242)" fill="none" stroke="#1a1818" stroke-linejoin="round" stroke-width="0.5"/>
  </g>
</svg>
