<svg xmlns="http://www.w3.org/2000/svg" width="35.306" height="35.37" viewBox="0 0 35.306 35.37">
  <g id="phone-missed" transform="translate(1.001 1.414)">
    <path id="Shape" d="M9.448,0,0,9.448" transform="translate(23.443)" fill="none" stroke="#fff" stroke-linecap="round" stroke-linejoin="round" stroke-miterlimit="10" stroke-width="2"/>
    <path id="Shape-2" data-name="Shape" d="M0,0,9.448,9.448" transform="translate(23.443)" fill="none" stroke="#fff" stroke-linecap="round" stroke-linejoin="round" stroke-miterlimit="10" stroke-width="2"/>
    <path id="Shape-3" data-name="Shape" d="M31.316,23.493v4.724a3.149,3.149,0,0,1-3.433,3.149,31.161,31.161,0,0,1-13.589-4.834,30.7,30.7,0,0,1-9.448-9.448A31.161,31.161,0,0,1,.013,3.433,3.149,3.149,0,0,1,3.146,0H7.87a3.149,3.149,0,0,1,3.149,2.708,20.218,20.218,0,0,0,1.1,4.425,3.149,3.149,0,0,1-.709,3.322l-2,2A25.193,25.193,0,0,0,18.861,21.9l2-2a3.149,3.149,0,0,1,3.322-.709,20.218,20.218,0,0,0,4.425,1.1A3.149,3.149,0,0,1,31.316,23.493Z" transform="translate(0 1.574)" fill="none" stroke="#fff" stroke-linecap="round" stroke-linejoin="round" stroke-miterlimit="10" stroke-width="2"/>
  </g>
</svg>
