<svg xmlns="http://www.w3.org/2000/svg" width="50.145" height="50.145" viewBox="0 0 26.145 26.145">
  <g id="Group_7186" data-name="Group 7186" transform="translate(1168.503 -123.933)">
    <circle id="Ellipse_139" data-name="Ellipse 139" cx="12.573" cy="12.573" r="12.573" transform="translate(-1168.003 124.433)" fill="none" stroke="#343844" stroke-miterlimit="10" stroke-width="1"/>
    <path id="Path_4121" data-name="Path 4121" d="M-1073.6,135.7c-.625,1.8-3.606,2.4-6.66,1.346s-5.022-3.377-4.4-5.179" transform="translate(-72.021 -6.432)" fill="none" stroke="#343844" stroke-miterlimit="10" stroke-width="1"/>
    <path id="Path_4122" data-name="Path 4122" d="M-1100.873,157.935c-.759,2.189-5.429,2.559-10.43.825s-8.44-4.915-7.681-7.1" transform="translate(-42.327 -23.556)" fill="none" stroke="#343844" stroke-miterlimit="10" stroke-width="1"/>
    <path id="Path_4123" data-name="Path 4123" d="M-1127.92,193.839c-.815,2.35-6.441,2.534-12.567.41s-10.431-5.751-9.616-8.1" transform="translate(-15.405 -53.403)" fill="none" stroke="#343844" stroke-miterlimit="10" stroke-width="1"/>
    <path id="Path_4124" data-name="Path 4124" d="M-1122.059,254.864c-1.751,1.472-6.25,1.384-11.005-.374a20.029,20.029,0,0,1-6.773-3.977" transform="translate(-24.372 -109.099)" fill="none" stroke="#343844" stroke-miterlimit="10" stroke-width="1"/>
  </g>
</svg>
