<svg xmlns="http://www.w3.org/2000/svg" xmlns:xlink="http://www.w3.org/1999/xlink" width="107" height="110" viewBox="0 0 107 110">
  <defs>
    <filter id="Ellipse_5" x="0" y="0" width="107" height="110" filterUnits="userSpaceOnUse">
      <feOffset dy="3" input="SourceAlpha"/>
      <feGaussianBlur stdDeviation="3" result="blur"/>
      <feFlood flood-opacity="0.325"/>
      <feComposite operator="in" in2="blur"/>
      <feComposite in="SourceGraphic"/>
    </filter>
    <filter id="Path_18" x="37.103" y="31.99" width="38.177" height="44.902" filterUnits="userSpaceOnUse">
      <feOffset dy="3" input="SourceAlpha"/>
      <feGaussianBlur stdDeviation="3" result="blur-2"/>
      <feFlood flood-opacity="0.396"/>
      <feComposite operator="in" in2="blur-2"/>
      <feComposite in="SourceGraphic"/>
    </filter>
  </defs>
  <g id="Play" transform="translate(8.635 6.689)">
    <g transform="matrix(1, 0, 0, 1, -8.63, -6.69)" filter="url(#Ellipse_5)">
      <g id="Ellipse_5-2" data-name="Ellipse 5" transform="translate(9 6)" fill="none" stroke="#fff" stroke-width="2">
        <ellipse cx="44.5" cy="46" rx="44.5" ry="46" stroke="none"/>
        <ellipse cx="44.5" cy="46" rx="43.5" ry="45" fill="none"/>
      </g>
    </g>
    <g transform="matrix(1, 0, 0, 1, -8.63, -6.69)" filter="url(#Path_18)">
      <path id="Path_18-2" data-name="Path 18" d="M21.841,39.9A.841.841,0,0,1,21,39.062V13.841a.841.841,0,0,1,1.315-.694l18.5,12.61a.841.841,0,0,1,0,1.389l-18.5,12.61A.842.842,0,0,1,21.841,39.9Zm.841-24.47V37.471l16.162-11.02Z" transform="translate(25.1 24.99)" fill="#fff"/>
    </g>
  </g>
</svg>
