<svg xmlns="http://www.w3.org/2000/svg" width="25.369" height="17.615" viewBox="0 0 25.369 17.615">
  <g id="Group_8734" data-name="Group 8734" transform="translate(-686.146 -186.467)">
    <g id="Group_7974" data-name="Group 7974" transform="translate(686.546 190.048)">
      <rect id="Rectangle_3451" data-name="Rectangle 3451" width="3.901" height="13.634" rx="1.95" transform="translate(3.858 0)" fill="none" stroke="#1a1818" stroke-miterlimit="10" stroke-width="0.8"/>
      <rect id="Rectangle_3452" data-name="Rectangle 3452" width="2.508" height="9.445" rx="1.254" transform="translate(1.349 2.095)" fill="none" stroke="#1a1818" stroke-miterlimit="10" stroke-width="0.8"/>
      <path id="Rectangle_3453" data-name="Rectangle 3453" d="M1,0h.347a0,0,0,0,1,0,0V2.005a0,0,0,0,1,0,0H1A1,1,0,0,1,0,1V1A1,1,0,0,1,1,0Z" transform="translate(0 5.815)" fill="none" stroke="#1a1818" stroke-miterlimit="10" stroke-width="0.8"/>
      <path id="Rectangle_3454" data-name="Rectangle 3454" d="M1.95,0h0A1.95,1.95,0,0,1,3.9,1.95v9.733a1.95,1.95,0,0,1-1.95,1.95h0A1.95,1.95,0,0,1,0,11.684V1.95A1.95,1.95,0,0,1,1.95,0Z" transform="translate(20.711 13.634) rotate(180)" fill="none" stroke="#1a1818" stroke-miterlimit="10" stroke-width="0.8"/>
      <rect id="Rectangle_3455" data-name="Rectangle 3455" width="2.508" height="9.445" rx="1.254" transform="translate(23.22 11.54) rotate(180)" fill="none" stroke="#1a1818" stroke-miterlimit="10" stroke-width="0.8"/>
      <path id="Rectangle_3456" data-name="Rectangle 3456" d="M1,0h.347a0,0,0,0,1,0,0V2.005a0,0,0,0,1,0,0H1A1,1,0,0,1,0,1V1A1,1,0,0,1,1,0Z" transform="translate(24.569 7.82) rotate(180)" fill="none" stroke="#1a1818" stroke-miterlimit="10" stroke-width="0.8"/>
      <rect id="Rectangle_3457" data-name="Rectangle 3457" width="9.052" height="2.379" transform="translate(7.759 5.628)" fill="none" stroke="#1a1818" stroke-miterlimit="10" stroke-width="0.8"/>
    </g>
    <g id="Group_7975" data-name="Group 7975" transform="translate(694.957 186.667)">
      <path id="Path_5471" data-name="Path 5471" d="M192.334,163.963h-1.428a1.878,1.878,0,0,0-1.71,1.1l-.613,1.536a.468.468,0,0,0,.527.651l2.3-.676a.751.751,0,0,1,.424,0l2.295.675a.471.471,0,0,0,.529-.654l-.612-1.533A1.878,1.878,0,0,0,192.334,163.963Z" transform="translate(-187.731 -161.137)" fill="none" stroke="#1a1818" stroke-miterlimit="10" stroke-width="0.4"/>
      <circle id="Ellipse_336" data-name="Ellipse 336" cx="1.199" cy="1.199" r="1.199" transform="translate(2.69 0)" fill="none" stroke="#1a1818" stroke-miterlimit="10" stroke-width="0.4"/>
      <path id="Path_5472" data-name="Path 5472" d="M224.133,234.138" transform="translate(-221.799 -228.305)" fill="none" stroke="#1a1818" stroke-miterlimit="10" stroke-width="0.4"/>
      <path id="Path_5473" data-name="Path 5473" d="M175.083,235.2a.752.752,0,0,0,.4.62l1.529.8a.752.752,0,0,1,.4.666h0a.752.752,0,0,1-.407.668l-.121.062a.752.752,0,0,1-.345.084h-6a.752.752,0,0,1-.345-.084l-.121-.062a.752.752,0,0,1-.407-.668h0a.752.752,0,0,1,.4-.666l1.529-.8a.752.752,0,0,0,.4-.608" transform="translate(-169.669 -229.324)" fill="none" stroke="#1a1818" stroke-miterlimit="10" stroke-width="0.4"/>
      <path id="Path_5474" data-name="Path 5474" d="M218.193,269.2l-2.841.319a.565.565,0,0,0-.5.561h0a.565.565,0,0,0,.565.565h2.778" transform="translate(-212.915 -261.863)" fill="none" stroke="#1a1818" stroke-miterlimit="10" stroke-width="0.4"/>
      <path id="Path_5475" data-name="Path 5475" d="M218.755,185.8l-.545-.151a2.3,2.3,0,0,1-1.328-.985h0a.094.094,0,0,0-.159,0h0a2.3,2.3,0,0,1-1.328.985l-.545.151" transform="translate(-212.915 -180.909)" fill="none" stroke="#1a1818" stroke-miterlimit="10" stroke-width="0.4"/>
    </g>
  </g>
</svg>
