<svg xmlns="http://www.w3.org/2000/svg" width="61.204" height="53.493" viewBox="0 0 61.204 53.493"> <g id="Group_192" data-name="Group 192" transform="translate(1.05 1.008)"> <path id="Path_176" data-name="Path 176" d="M545.3,1248.886a11.52,11.52,0,0,0,11.327-11.739,11.653,11.653,0,0,0-11.327-11.739c-11.327,0-3.707-22.654,11.327-22.654V1197.4C529.652,1197.606,518.943,1248.886,545.3,1248.886Zm-32.745,0a11.52,11.52,0,0,0,11.327-11.739,11.653,11.653,0,0,0-11.327-11.739c-11.327,0-3.707-22.654,11.327-22.654V1197.4C496.907,1197.606,486.4,1248.886,512.559,1248.886Z" transform="translate(-497.477 -1197.4)" fill="none" stroke="#00b2a9" stroke-width="2"/> </g> </svg>