<svg xmlns="http://www.w3.org/2000/svg" width="61.204" height="53.494" viewBox="0 0 61.204 53.494"> <g id="Group_193" data-name="Group 193" transform="translate(1 1)"> <path id="Path_177" data-name="Path 177" d="M604.827,1197.5a11.52,11.52,0,0,0-11.327,11.739,11.653,11.653,0,0,0,11.327,11.739c11.327,0,3.707,22.654-11.327,22.654v5.355C620.479,1248.78,631.188,1197.5,604.827,1197.5Zm32.746,0a11.52,11.52,0,0,0-11.327,11.739,11.653,11.653,0,0,0,11.327,11.739c11.327,0,3.707,22.654-11.327,22.654v5.355C653.225,1248.78,663.728,1197.5,637.573,1197.5Z" transform="translate(-593.5 -1197.5)" fill="none" stroke="#00b2a9" stroke-width="2"/> </g> </svg>