<svg xmlns="http://www.w3.org/2000/svg" width="36" height="36" viewBox="0 0 36 36">
  <g id="Group_8676" data-name="Group 8676" transform="translate(-837 -838)">
    <rect id="Rectangle" width="36" height="36" rx="3.282" transform="translate(837 838)" fill="#f7ca02"/>
    <g id="passage-of-time" transform="translate(844.719 846.361)">
      <path id="Path" d="M20.522,7.95A.433.433,0,0,0,20.13,7.7H18.85A9.512,9.512,0,0,0,0,9.415a9.524,9.524,0,0,0,17.738,4.71.851.851,0,0,0-.316-1.17.867.867,0,0,0-1.18.312A7.792,7.792,0,0,1,1.728,9.416,7.781,7.781,0,0,1,17.082,7.7H15.811a.433.433,0,0,0-.392.247.424.424,0,0,0,.06.455l2.16,2.568a.435.435,0,0,0,.664,0l2.16-2.568A.424.424,0,0,0,20.522,7.95Z" transform="translate(0 0.224)" fill="#fff"/>
    </g>
  </g>
</svg>
