<svg xmlns="http://www.w3.org/2000/svg" width="51.5" height="51.5" viewBox="0 0 51.5 51.5">
  <g id="Group_8005" data-name="Group 8005" transform="translate(9913.186 -227.886)">
    <circle id="Ellipse_355" data-name="Ellipse 355" cx="25" cy="25" r="25" transform="translate(-9912.436 228.636)" fill="none" stroke="#fff" stroke-linejoin="round" stroke-width="1.5"/>
    <path id="Path_7094" data-name="Path 7094" d="M-1091.032,270.355a4,4,0,0,1,4-4,4,4,0,0,1,4,4" transform="translate(-8809.404 -21.719)" fill="none" stroke="#fff" stroke-linecap="round" stroke-linejoin="round" stroke-width="1.5"/>
    <path id="Path_7095" data-name="Path 7095" d="M-1073.032,270.355a4,4,0,0,1,4-4,4,4,0,0,1,4,4" transform="translate(-8809.404 -21.719)" fill="none" stroke="#fff" stroke-linecap="round" stroke-linejoin="round" stroke-width="1.5"/>
    <path id="Path_7096" data-name="Path 7096" d="M-1063.588,290.355a14.994,14.994,0,0,0-14.444-11,15,15,0,0,0-14.444,11" transform="translate(-8809.404 -21.719)" fill="none" stroke="#fff" stroke-linecap="round" stroke-linejoin="round" stroke-width="1.5"/>
  </g>
</svg>
