<svg id="Group_51" data-name="Group 51" xmlns="http://www.w3.org/2000/svg" width="15.978" height="11.432" viewBox="0 0 15.978 11.432">
  <path id="Path_148" data-name="Path 148" d="M700.63,1489.746H686.948a1.148,1.148,0,0,0,0,2.3H700.63a1.169,1.169,0,0,0,1.148-1.148A1.14,1.14,0,0,0,700.63,1489.746Zm-13.683-2.251H700.63a1.14,1.14,0,0,0,1.148-1.148,1.169,1.169,0,0,0-1.148-1.147H686.948a1.139,1.139,0,0,0-1.148,1.147A1.2,1.2,0,0,0,686.948,1487.5Zm13.683,6.841H686.948a1.14,1.14,0,0,0-1.148,1.148,1.168,1.168,0,0,0,1.148,1.148H700.63a1.169,1.169,0,0,0,1.148-1.148A1.113,1.113,0,0,0,700.63,1494.337Z" transform="translate(-685.8 -1485.2)"/>
</svg>
