<svg xmlns="http://www.w3.org/2000/svg" width="18.229" height="10.946" viewBox="0 0 18.229 10.946">
  <path id="Path_242" data-name="Path 242" d="M1084.449,1293.6H1068.78a1.281,1.281,0,0,0-1.28,1.28v8.386a1.281,1.281,0,0,0,1.28,1.28h15.669a1.281,1.281,0,0,0,1.28-1.28v-8.386A1.281,1.281,0,0,0,1084.449,1293.6Zm-6.93,1.854h1.81v1.81h-1.81Zm2.737,2.737V1300h-1.81v-1.81Zm-5.473-2.737h1.81v1.81h-1.81Zm2.737,2.737V1300h-1.81v-1.81Zm-5.429-2.737h1.81v1.81h-1.81Zm2.692,2.737V1300h-1.81v-1.81Zm-5.429-2.737h1.81v1.81h-1.81Zm2.737,2.737V1300h-1.81v-1.81Zm-.927,4.546h-1.81v-1.81h1.81Zm10.019,0h-9.137v-1.81h9.137Zm2.737,0h-1.81v-1.81h0V1300h-.927v-1.81h2.692v2.737h0v1.81Zm0-5.473h-3.664v-1.81h3.664Z" transform="translate(-1067.5 -1293.6)"/>
</svg>
