<svg xmlns="http://www.w3.org/2000/svg" width="36" height="36" viewBox="0 0 36 36">
  <g id="Group_8673" data-name="Group 8673" transform="translate(-597 -836)">
    <rect id="Rectangle" width="36" height="36" rx="3.282" transform="translate(597 836)" fill="#f77e0b"/>
    <g id="passage-of-time" transform="translate(603.5 843.246)">
      <path id="Path" d="M22.954,8.892a.484.484,0,0,0-.438-.276H21.083A10.639,10.639,0,0,0,0,10.53,10.652,10.652,0,0,0,19.839,15.8a.952.952,0,0,0-.353-1.308.97.97,0,0,0-1.32.349A8.715,8.715,0,0,1,1.933,10.531,8.7,8.7,0,0,1,19.106,8.616H17.685a.485.485,0,0,0-.438.276.474.474,0,0,0,.067.509l2.416,2.872a.486.486,0,0,0,.742,0L22.888,9.4A.475.475,0,0,0,22.954,8.892Z" transform="translate(0 0.224)" fill="#fff"/>
      <path id="Shape" d="M6.25,11.7a.972.972,0,0,1-.483-.13L2.405,9.652A1.674,1.674,0,0,1,.725,6.766V.957a.967.967,0,0,1,1.934,0V6.766a1.669,1.669,0,0,1,.708,1.225L6.733,9.916a.951.951,0,0,1,.355,1.306A.973.973,0,0,1,6.25,11.7ZM1.691,7.42a.717.717,0,1,0,.725.717A.722.722,0,0,0,1.691,7.42Z" transform="translate(8.94 2.617)" fill="#fff"/>
    </g>
  </g>
</svg>
