<svg xmlns="http://www.w3.org/2000/svg" width="24.789" height="24.789" viewBox="0 0 24.789 24.789">
  <g id="settings" transform="translate(0.75 0.75)">
    <circle id="Oval" cx="3.176" cy="3.176" r="3.176" transform="translate(8.469 8.469)" fill="none" stroke="#1a1818" stroke-linecap="round" stroke-linejoin="round" stroke-miterlimit="10" stroke-width="1.5"/>
    <path id="Shape" d="M19.478,14.82a1.747,1.747,0,0,0,.349,1.927l.064.064a2.118,2.118,0,1,1-3,3l-.064-.064a1.761,1.761,0,0,0-2.985,1.249v.18a2.117,2.117,0,0,1-4.234,0v-.1a1.747,1.747,0,0,0-1.143-1.6,1.747,1.747,0,0,0-1.927.349l-.064.064a2.118,2.118,0,1,1-3-3l.064-.064A1.761,1.761,0,0,0,2.3,13.847h-.18a2.117,2.117,0,1,1,0-4.234h.1a1.747,1.747,0,0,0,1.6-1.143,1.747,1.747,0,0,0-.349-1.927L3.4,6.479a2.118,2.118,0,1,1,3-3l.064.064A1.747,1.747,0,0,0,8.384,3.9h.085A1.747,1.747,0,0,0,9.527,2.3v-.18a2.117,2.117,0,1,1,4.234,0v.1a1.761,1.761,0,0,0,2.985,1.249l.064-.064a2.118,2.118,0,1,1,3,3l-.064.064a1.747,1.747,0,0,0-.349,1.927v.085a1.747,1.747,0,0,0,1.6,1.059h.18a2.117,2.117,0,0,1,0,4.234h-.1A1.747,1.747,0,0,0,19.478,14.82Z" transform="translate(0)" fill="none" stroke="#1a1818" stroke-linecap="round" stroke-linejoin="round" stroke-miterlimit="10" stroke-width="1.5"/>
  </g>
</svg>
