<svg xmlns="http://www.w3.org/2000/svg" width="70.691" height="51.521" viewBox="0 0 70.691 51.521"><g transform="translate(-132.485 -134.879)"><circle cx="7.545" cy="7.545" r="7.545" transform="translate(170.072 150.769) rotate(-76.717)" fill="none" stroke="#221f1f" stroke-linejoin="round" stroke-width="2"/><path d="M201.784,250.915c-4.688,6.706-12.289,6.706-16.977,0-4.688,6.706-12.289,6.706-16.976,0-4.688,6.706-12.289,6.706-16.976,0-4.688,6.706-12.289,6.706-16.976,0" transform="translate(0 -80.605)" fill="none" stroke="#221f1f" stroke-linecap="round" stroke-linejoin="round" stroke-width="2"/><path d="M212.008,284.667c-4.862,6.707-12.744,6.707-17.605,0-4.861,6.707-12.744,6.707-17.605,0-4.861,6.707-12.744,6.707-17.605,0" transform="translate(-17.769 -104.297)" fill="none" stroke="#221f1f" stroke-linecap="round" stroke-linejoin="round" stroke-width="2"/><path d="M195.132,193.3l11.42-11.391a3.694,3.694,0,0,0,.554-4.683,3.559,3.559,0,0,0-5.441-.49l-10.239,10.214a2.515,2.515,0,0,1-2.968.434l-26.116-14.062a7.546,7.546,0,0,0-8.9,1.3l-9.982,9.95a3.693,3.693,0,0,0-.274,5.034,3.557,3.557,0,0,0,5.162.139l7.613-7.575a2.515,2.515,0,0,1,3.158-.317l5.837,3.849-5.03,5.085" transform="translate(-5.923 -25.509)" fill="none" stroke="#221f1f" stroke-linecap="round" stroke-linejoin="round" stroke-width="2"/></g></svg>