<svg xmlns="http://www.w3.org/2000/svg" width="13.824" height="13.688" viewBox="0 0 13.824 13.688">
  <g id="Group_8017" data-name="Group 8017" transform="translate(-32.277 -35.654)">
    <path id="Path_5496" data-name="Path 5496" d="M289.2,125.029v-.162q0-4.081,0-8.163a.69.69,0,1,1,1.377-.057c0,.745,0,1.489,0,2.234q0,3.013,0,6.025v.156c.055-.052.091-.084.124-.117q.688-.687,1.375-1.374a.69.69,0,0,1,1.081.856,1.21,1.21,0,0,1-.118.134l-2.649,2.654a.692.692,0,0,1-1,0q-1.342-1.339-2.678-2.684a.679.679,0,0,1-.19-.744.655.655,0,0,1,.6-.457.709.709,0,0,1,.578.238q.681.684,1.364,1.366a1.062,1.062,0,0,1,.091.121Z" transform="translate(-247.195 -78.087)" fill="#181818"/>
    <path id="Path_5497" data-name="Path 5497" d="M36.374,38.055v.162q0,4.076,0,8.151a.687.687,0,0,1-.557.745.678.678,0,0,1-.82-.682c0-.777,0-1.554,0-2.331q0-2.952,0-5.9v-.177c-.058.055-.095.086-.129.12-.458.458-.915.918-1.376,1.374a.689.689,0,0,1-1.08-.854,1.234,1.234,0,0,1,.128-.144l2.65-2.654a.69.69,0,0,1,.989,0q1.348,1.343,2.688,2.695a.69.69,0,1,1-.982.967c-.461-.456-.917-.916-1.375-1.375-.035-.035-.065-.076-.1-.115Z" fill="#181818"/>
  </g>
</svg>
