<svg xmlns="http://www.w3.org/2000/svg" width="21.031" height="20.537" viewBox="0 0 21.031 20.537">
  <g id="Group_8747" data-name="Group 8747" transform="translate(-2846.325 -32.888)">
    <circle id="Ellipse_350" data-name="Ellipse 350" cx="3.906" cy="3.906" r="3.906" transform="translate(2849.566 33.288)" fill="none" stroke="#1a1818" stroke-linejoin="round" stroke-width="0.8"/>
    <path id="Path_7061" data-name="Path 7061" d="M2876.806,39.87a3.906,3.906,0,1,0,0-5.351" transform="translate(-20.493 0)" fill="none" stroke="#1a1818" stroke-linejoin="round" stroke-width="0.8"/>
    <g id="Group_7952" data-name="Group 7952" transform="translate(2857.736 43.804)">
      <path id="Path_7062" data-name="Path 7062" d="M2889.478,76.964l-1.106-1.107-.738.738,1.844,1.844,3.32-3.32-.738-.738Z" transform="translate(-2885.605 -71.8)" fill="none" stroke="#1a1818" stroke-linejoin="round" stroke-width="0.8"/>
      <circle id="Ellipse_351" data-name="Ellipse 351" cx="4.61" cy="4.61" r="4.61" fill="none" stroke="#1a1818" stroke-linejoin="round" stroke-width="0.8"/>
    </g>
    <path id="Path_7063" data-name="Path 7063" d="M2859.847,60.467a3.056,3.056,0,0,0-1.22-1.247,10.064,10.064,0,0,0-10.31,0,3.13,3.13,0,0,0-1.592,2.841v1.877a.963.963,0,0,0,.964.964h9.387A5.275,5.275,0,0,1,2859.847,60.467Z" transform="translate(0 -16.698)" fill="none" stroke="#1a1818" stroke-linejoin="round" stroke-width="0.8"/>
    <path id="Path_7064" data-name="Path 7064" d="M2876.042,58.144a18.288,18.288,0,0,1,3.085-.345,10.682,10.682,0,0,1,5.155,1.421,3.036,3.036,0,0,1,1.458,1.848,5.608,5.608,0,0,0-5.92-.6" transform="translate(-19.972 -16.698)" fill="none" stroke="#1a1818" stroke-linejoin="round" stroke-width="0.8"/>
  </g>
</svg>
