<svg id="video-off-S-quiet" xmlns="http://www.w3.org/2000/svg" width="48" height="48" viewBox="0 0 48 48">
  <rect id="bounds" width="48" height="48" fill="rgba(28,143,248,0.34)" opacity="0"/>
  <g id="video-off" transform="translate(7 7)">
    <path id="Shape" d="M20.682,22.272H3.182A3.185,3.185,0,0,1,0,19.091V3.182A3.185,3.185,0,0,1,3.182,0H6.364l17.5,17.5v1.591A3.185,3.185,0,0,1,20.682,22.272ZM35,19.091l0,0-9.38-9.121L35,3.182V19.091Zm-9.545-9h0L23.864,8.5V8.263l1.755,1.7-.163.118ZM23.863,8.261l0,0L15.368,0h5.314a3.185,3.185,0,0,1,3.181,3.182v5.08Z" transform="translate(0 6.364)" fill="none" stroke="#fff" stroke-linecap="round" stroke-linejoin="round" stroke-miterlimit="10" stroke-width="2"/>
    <path id="Shape-2" data-name="Shape" d="M0,0,35,35" fill="none" stroke="#fff" stroke-linecap="round" stroke-linejoin="round" stroke-miterlimit="10" stroke-width="2"/>
  </g>
</svg>
