<svg xmlns="http://www.w3.org/2000/svg" width="16.834" height="16.637" viewBox="0 0 16.834 16.637">
  <g id="Group_8719" data-name="Group 8719" transform="translate(15848.174 -4790.928)">
    <text id="_20" data-name="20" transform="translate(-15838.756 4803.677)" fill="#1a1818" font-size="6" font-family="SegoeUI, Segoe UI"><tspan x="0" y="0">₺</tspan></text>
    <g id="Group_8146" data-name="Group 8146" transform="translate(-15848.174 4790.928)">
      <g id="Group_8004" data-name="Group 8004" transform="translate(0 0)">
        <g id="Group_8003" data-name="Group 8003" transform="translate(0 0)">
          <path id="Path_5491" data-name="Path 5491" d="M12.738,8.661a1.509,1.509,0,0,0-.146-.269h.856a1.512,1.512,0,0,0,0-3.025H10.815A1.511,1.511,0,0,0,9.568,3H1.512a1.512,1.512,0,1,0,0,3.025H4.145a1.508,1.508,0,0,0,0,1.71H3.288a1.512,1.512,0,0,0-.94,2.7,1.51,1.51,0,0,0,0,2.367,1.51,1.51,0,0,0,0,2.367,1.512,1.512,0,0,0,.94,2.7H7.163a5.588,5.588,0,1,0,5.575-9.2Zm.71-2.636a.855.855,0,0,1,0,1.71H5.392a.855.855,0,1,1,0-1.71ZM1.512,5.367a.855.855,0,0,1,0-1.71H9.568a.855.855,0,0,1,0,1.71ZM3.288,8.392h8.055a.854.854,0,0,1,.373.086c-.156-.013-.313-.02-.472-.02A5.572,5.572,0,0,0,7.289,10.1h-4a.855.855,0,0,1,0-1.71Zm0,2.367h3.44a5.574,5.574,0,0,0-.845,1.71H3.288a.855.855,0,1,1,0-1.71Zm0,2.367H5.732a5.594,5.594,0,0,0-.02,1.71H3.288a.855.855,0,1,1,0-1.71Zm0,4.077a.855.855,0,1,1,0-1.71H5.845a5.567,5.567,0,0,0,.789,1.71Zm7.957,1.776a4.932,4.932,0,1,1,4.932-4.932A4.937,4.937,0,0,1,11.245,18.979Z" transform="translate(0 -3)" fill="#1a1818"/>
        </g>
      </g>
    </g>
  </g>
</svg>
