<svg xmlns="http://www.w3.org/2000/svg" width="96" height="96" viewBox="0 0 96 96">
  <g id="Group_9014" data-name="Group 9014" transform="translate(-223 -32.492)">
    <circle id="Oval" cx="48" cy="48" r="48" transform="translate(223 32.492)" fill="#f01c62"/>
    <g id="Group_9013" data-name="Group 9013">
      <path id="Path_7100" data-name="Path 7100" d="M-1078.031,57.141l-1.962-13.73a1.962,1.962,0,0,1,1.962-1.962h0a1.962,1.962,0,0,1,1.961,1.962Z" transform="translate(1347.67 25.002)" fill="#fff" stroke="#fff" stroke-width="1.5"/>
      <circle id="Ellipse_357" data-name="Ellipse 357" cx="1.961" cy="1.961" r="1.961" transform="translate(267.678 89.989)" fill="#fff" stroke="#fff" stroke-width="1.5"/>
      <path id="Path_7101" data-name="Path 7101" d="M-1081.413,29.647-1106.9,72.8a3.923,3.923,0,0,0,3.378,5.918h50.985a3.923,3.923,0,0,0,3.378-5.918l-25.5-43.153A3.922,3.922,0,0,0-1081.413,29.647Z" transform="translate(1348.953 25.002)" fill="none" stroke="#fff" stroke-linejoin="round" stroke-width="1.5"/>
    </g>
  </g>
</svg>
