<svg xmlns="http://www.w3.org/2000/svg" width="78.866" height="68.395" viewBox="0 0 78.866 68.395">
  <g id="Group_7950" data-name="Group 7950" transform="translate(-227.529 -27.219)">
    <path id="Path_5469" data-name="Path 5469" d="M258.135,62.186l-2.593-18.144a2.593,2.593,0,0,1,2.593-2.593h0a2.593,2.593,0,0,1,2.591,2.593Z" transform="translate(8.828 4.414)" fill="#f01c62"/>
    <circle id="Ellipse_335" data-name="Ellipse 335" cx="2.592" cy="2.592" r="2.592" transform="translate(264.37 76.969)" fill="#f01c62"/>
    <path id="Path_5470" data-name="Path 5470" d="M262.494,30.267,228.81,87.293a5.184,5.184,0,0,0,4.463,7.821H300.65a5.184,5.184,0,0,0,4.464-7.821L271.42,30.267A5.183,5.183,0,0,0,262.494,30.267Z" transform="translate(0 0)" fill="none" stroke="#f01c62" stroke-linejoin="round" stroke-width="1"/>
  </g>
</svg>
