<svg xmlns="http://www.w3.org/2000/svg" width="586" height="56.958" viewBox="0 0 586 56.958">
  <path id="Path" d="M0,4.148C0,2,4.734.969,7.325,2.561L9.367,3.816a11.336,11.336,0,0,0,10.565,0l4.085-2.509a11.336,11.336,0,0,1,10.565,0l4.085,2.509a11.336,11.336,0,0,0,10.565,0l4.085-2.509a11.336,11.336,0,0,1,10.565,0l4.085,2.509a11.336,11.336,0,0,0,10.565,0l4.085-2.509a11.336,11.336,0,0,1,10.565,0l4.085,2.509a11.336,11.336,0,0,0,10.565,0l4.085-2.509a11.336,11.336,0,0,1,10.565,0l4.085,2.509a11.336,11.336,0,0,0,10.565,0l4.085-2.509a11.336,11.336,0,0,1,10.565,0l4.085,2.509a11.336,11.336,0,0,0,10.565,0l4.085-2.509a11.336,11.336,0,0,1,10.565,0l4.085,2.509a11.336,11.336,0,0,0,10.565,0l4.085-2.509a11.336,11.336,0,0,1,10.565,0l4.085,2.509a11.336,11.336,0,0,0,10.565,0l4.085-2.509a11.336,11.336,0,0,1,10.565,0l4.085,2.509a11.336,11.336,0,0,0,10.565,0l4.085-2.509a11.336,11.336,0,0,1,10.565,0l4.085,2.509a11.336,11.336,0,0,0,10.565,0l4.085-2.509a11.336,11.336,0,0,1,10.565,0l4.085,2.509a11.336,11.336,0,0,0,10.565,0l4.085-2.509a11.336,11.336,0,0,1,10.565,0l4.085,2.509a11.336,11.336,0,0,0,10.565,0l4.085-2.509a11.336,11.336,0,0,1,10.565,0l4.085,2.509a11.336,11.336,0,0,0,10.565,0l4.085-2.509a11.336,11.336,0,0,1,10.565,0l4.085,2.509a11.336,11.336,0,0,0,10.565,0l4.085-2.509a11.336,11.336,0,0,1,10.565,0l4.085,2.509a11.336,11.336,0,0,0,10.565,0l4.085-2.509a11.336,11.336,0,0,1,10.565,0l4.085,2.509a11.336,11.336,0,0,0,10.565,0l4.085-2.509a11.336,11.336,0,0,1,10.565,0l4.085,2.509a11.336,11.336,0,0,0,10.565,0l4.085-2.509a11.336,11.336,0,0,1,10.565,0l4.085,2.509a11.336,11.336,0,0,0,10.565,0l4.085-2.509a11.336,11.336,0,0,1,10.565,0l4.085,2.509a11.336,11.336,0,0,0,10.565,0l4.085-2.509a11.336,11.336,0,0,1,10.565,0l4.085,2.509a11.336,11.336,0,0,0,10.565,0l2.042-1.255C581.266.969,586,2,586,4.148V56.958H0Z" fill="#fff"/>
</svg>
