<svg xmlns="http://www.w3.org/2000/svg" xmlns:xlink="http://www.w3.org/1999/xlink" width="640" height="163.46" viewBox="0 0 640 163.46">
  <defs>
    <filter id="Rectangle_3358" x="0" y="10.96" width="640" height="152.5" filterUnits="userSpaceOnUse">
      <feOffset dy="2" input="SourceAlpha"/>
      <feGaussianBlur stdDeviation="9" result="blur"/>
      <feFlood flood-opacity="0.141"/>
      <feComposite operator="in" in2="blur"/>
      <feComposite in="SourceGraphic"/>
    </filter>
  </defs>
  <g id="Group_7828" data-name="Group 7828" transform="translate(-964 -738.04)">
    <g transform="matrix(1, 0, 0, 1, 964, 738.04)" filter="url(#Rectangle_3358)">
      <rect id="Rectangle_3358-2" data-name="Rectangle 3358" width="586" height="98.5" rx="20" transform="translate(27 35.96)" fill="#fff"/>
    </g>
    <path id="bg" d="M0,52.809c0,2.153,4.734,3.18,7.325,1.588l2.042-1.255a11.336,11.336,0,0,1,10.565,0l4.085,2.509a11.336,11.336,0,0,0,10.565,0l4.085-2.509a11.336,11.336,0,0,1,10.565,0l4.085,2.509a11.336,11.336,0,0,0,10.565,0l4.085-2.509a11.336,11.336,0,0,1,10.565,0l4.085,2.509a11.336,11.336,0,0,0,10.565,0l4.085-2.509a11.336,11.336,0,0,1,10.565,0l4.085,2.509a11.336,11.336,0,0,0,10.565,0l4.085-2.509a11.336,11.336,0,0,1,10.565,0l4.085,2.509a11.336,11.336,0,0,0,10.565,0l4.085-2.509a11.336,11.336,0,0,1,10.565,0l4.085,2.509a11.336,11.336,0,0,0,10.565,0l4.085-2.509a11.336,11.336,0,0,1,10.565,0l4.085,2.509a11.336,11.336,0,0,0,10.565,0l4.085-2.509a11.336,11.336,0,0,1,10.565,0l4.085,2.509a11.336,11.336,0,0,0,10.565,0l4.085-2.509a11.336,11.336,0,0,1,10.565,0l4.085,2.509a11.336,11.336,0,0,0,10.565,0l4.085-2.509a11.336,11.336,0,0,1,10.565,0l4.085,2.509a11.336,11.336,0,0,0,10.565,0l4.085-2.509a11.336,11.336,0,0,1,10.565,0l4.085,2.509a11.336,11.336,0,0,0,10.565,0l4.085-2.509a11.336,11.336,0,0,1,10.565,0l4.085,2.509a11.336,11.336,0,0,0,10.565,0l4.085-2.509a11.336,11.336,0,0,1,10.565,0l4.085,2.509a11.336,11.336,0,0,0,10.565,0l4.085-2.509a11.336,11.336,0,0,1,10.565,0l4.085,2.509a11.336,11.336,0,0,0,10.565,0l4.085-2.509a11.336,11.336,0,0,1,10.565,0l4.085,2.509a11.336,11.336,0,0,0,10.565,0l4.085-2.509a11.336,11.336,0,0,1,10.565,0l4.085,2.509a11.336,11.336,0,0,0,10.565,0l4.085-2.509a11.336,11.336,0,0,1,10.565,0l4.085,2.509a11.336,11.336,0,0,0,10.565,0l4.085-2.509a11.336,11.336,0,0,1,10.565,0l4.085,2.509a11.336,11.336,0,0,0,10.565,0l4.085-2.509a11.336,11.336,0,0,1,10.565,0l4.085,2.509a11.336,11.336,0,0,0,10.565,0l4.085-2.509a11.336,11.336,0,0,1,10.565,0l2.042,1.255c2.591,1.592,7.325.566,7.325-1.588V0H0Z" transform="translate(1577 794.998) rotate(180)" fill="#fff"/>
  </g>
</svg>
