<svg xmlns="http://www.w3.org/2000/svg" width="36" height="36" viewBox="0 0 36 36">
  <g id="Group_8674" data-name="Group 8674" transform="translate(-460 -836)">
    <rect id="Rectangle" width="36" height="36" rx="3.282" transform="translate(460 836)" fill="#7082e9"/>
    <g id="training" transform="translate(466.756 805.398)">
      <path id="Path_55856" data-name="Path 55856" d="M304.647,279.427a.34.34,0,0,0-.478.054l-.861,1.08a.34.34,0,0,0-.074.212v7.016a.34.34,0,0,0,.68,0v-6.9l.787-.987A.34.34,0,0,0,304.647,279.427Z" transform="translate(-289.481 -229.832)" fill="#fff"/>
      <path id="Path_55857" data-name="Path 55857" d="M22.265,39.451h-.544a.928.928,0,0,0-.254.036.932.932,0,0,0-.929-.885h-.928a.933.933,0,0,0-.932.932v3.257H15.794V41.632a1.443,1.443,0,0,0-2.422-1.061,1.442,1.442,0,0,0-2.479.036,1.441,1.441,0,0,0-2.13.239,1.443,1.443,0,0,0-2.478,1.006v.895c0,.015,0,.03,0,.044H4.518v-.962a.34.34,0,1,0-.68,0v6.931a.252.252,0,0,1-.251.251H2.658a.252.252,0,0,1-.251-.251V39.534a.252.252,0,0,1,.251-.251h.928a.252.252,0,0,1,.251.251v.845a.34.34,0,1,0,.68,0v-.845a.933.933,0,0,0-.932-.932H2.658a.932.932,0,0,0-.929.885.928.928,0,0,0-.254-.036H.932A.933.933,0,0,0,0,40.383V47.91a.933.933,0,0,0,.932.932h.544a.927.927,0,0,0,.254-.036.932.932,0,0,0,.929.885h.928a.933.933,0,0,0,.932-.932V45.5H6.4v2.085a3.784,3.784,0,0,0,.75,2.253l.237.317v7.8a.34.34,0,0,0,.68,0V50.044A.34.34,0,0,0,8,49.84l-.3-.407a3.1,3.1,0,0,1-.614-1.846V45.5h4.471a1.558,1.558,0,0,0,.6.325,3.228,3.228,0,0,0-1.13,2.442v.275a.34.34,0,1,0,.68,0v-.275a2.541,2.541,0,0,1,1.21-2.156l.369-.225h.3a.34.34,0,1,0,0-.68h-1a.879.879,0,0,1,0-1.759H15a1.236,1.236,0,0,1,1.235,1.235V45.6a6.042,6.042,0,0,1-.746,2.9.34.34,0,1,0,.6.328,6.725,6.725,0,0,0,.83-3.231v-.1h1.767v3.257a.933.933,0,0,0,.932.932h.928a.932.932,0,0,0,.929-.885.928.928,0,0,0,.254.036h.544a.933.933,0,0,0,.932-.932V40.383a.933.933,0,0,0-.932-.932Zm-20.79,8.71H.932A.252.252,0,0,1,.68,47.91V40.383a.252.252,0,0,1,.251-.251h.544a.252.252,0,0,1,.251.251V47.91A.252.252,0,0,1,1.476,48.161Zm7.7-6.474a.763.763,0,0,1,1.527,0v1.246a.763.763,0,1,1-1.527,0Zm-2.207.165a.763.763,0,1,1,1.527,0v.895a.763.763,0,1,1-1.527,0Zm-2.447,1.62H6.481a1.442,1.442,0,0,0,2.274.29,1.442,1.442,0,0,0,2.371-.011h0a1.554,1.554,0,0,0-.031,1.073H4.518Zm6.862-.142v-2a.763.763,0,0,1,1.527,0v1.44h-.33A1.557,1.557,0,0,0,11.379,43.329Zm2.207-.562V41.632a.763.763,0,0,1,1.527,0v1.135Zm3.326,2.054v-.139a1.906,1.906,0,0,0-.433-1.212h2.2v1.35Zm5.6,3.089a.252.252,0,0,1-.251.251h-.544a.252.252,0,0,1-.251-.251V46.264a.34.34,0,1,0-.68,0v2.5a.252.252,0,0,1-.251.251h-.928a.252.252,0,0,1-.251-.251V39.534a.252.252,0,0,1,.251-.251h.928a.252.252,0,0,1,.251.251v5.281a.34.34,0,1,0,.68,0V40.383a.252.252,0,0,1,.251-.251h.544a.252.252,0,0,1,.251.251Z" transform="translate(0 0)" fill="#fff"/>
    </g>
  </g>
</svg>
