<svg xmlns="http://www.w3.org/2000/svg" width="100.389" height="100.389" viewBox="0 0 100.389 100.389">
  <g id="Group_7247" data-name="Group 7247" transform="translate(0 0)">
    <g id="Group_7246" data-name="Group 7246" transform="translate(0 0)">
      <rect id="Rectangle_3269" data-name="Rectangle 3269" width="70.985" height="70.986" transform="translate(0 50.194) rotate(-45)" fill="#ee4036" opacity="0.5"/>
      <g id="Group_7245" data-name="Group 7245" transform="translate(13.254 19.129)">
        <g id="Group_7243" data-name="Group 7243" transform="translate(18.542 20.778)">
          <g id="Group_7242" data-name="Group 7242" transform="translate(15.373 23.412)">
            <g id="Group_7241" data-name="Group 7241">
              <path id="Path_4622" data-name="Path 4622" d="M6127.636,247.49h0a1.813,1.813,0,0,1,1.3.548,1.883,1.883,0,0,1,0,2.636,1.819,1.819,0,0,1-2.6,0,1.888,1.888,0,0,1,0-2.64,1.8,1.8,0,0,1,1.3-.545m0-1.327a3.1,3.1,0,0,0-2.22.934,3.229,3.229,0,0,0,0,4.517,3.111,3.111,0,0,0,4.445,0,3.224,3.224,0,0,0,0-4.514,3.113,3.113,0,0,0-2.225-.936Z" transform="translate(-6124.494 -246.163)" fill="#2e2d2c"/>
            </g>
          </g>
          <path id="Path_4623" data-name="Path 4623" d="M6116.685,234.8a9.331,9.331,0,0,1,13.338.009" transform="translate(-6104.833 -214.978)" fill="none" stroke="#2e2d2c" stroke-linecap="round" stroke-miterlimit="10" stroke-width="1.786"/>
          <path id="Path_4624" data-name="Path 4624" d="M6103.543,218.421a17.621,17.621,0,0,1,25.193.014" transform="translate(-6097.619 -204.615)" fill="none" stroke="#2e2d2c" stroke-linecap="round" stroke-miterlimit="10" stroke-width="1.786"/>
          <path id="Path_4625" data-name="Path 4625" d="M6090.407,202.035a25.916,25.916,0,0,1,37.051.019" transform="translate(-6090.407 -194.252)" fill="none" stroke="#2e2d2c" stroke-linecap="round" stroke-miterlimit="10" stroke-width="1.786"/>
        </g>
        <g id="Group_7244" data-name="Group 7244">
          <rect id="Rectangle_3270" data-name="Rectangle 3270" width="73.88" height="59.904" rx="4.049" fill="none" stroke="#2e2d2c" stroke-linecap="round" stroke-linejoin="round" stroke-width="2"/>
          <line id="Line_314" data-name="Line 314" x2="73.88" transform="translate(0 11.676)" fill="none" stroke="#2e2d2c" stroke-linecap="round" stroke-linejoin="round" stroke-width="2"/>
        </g>
        <path id="Path_4626" data-name="Path 4626" d="M6074.088,158.881a2.132,2.132,0,1,1-2.132-2.165A2.149,2.149,0,0,1,6074.088,158.881Z" transform="translate(-6060.565 -152.866)" fill="#2e2d2c"/>
        <path id="Path_4627" data-name="Path 4627" d="M6095.322,158.881a2.133,2.133,0,1,1-2.133-2.165A2.149,2.149,0,0,1,6095.322,158.881Z" transform="translate(-6072.223 -152.866)" fill="#2e2d2c"/>
      </g>
    </g>
    <path id="Path_4628" data-name="Path 4628" d="M6216.617,176.144" transform="translate(-6127.901 -144.403)" fill="none" stroke="#231f20" stroke-miterlimit="10" stroke-width="1"/>
  </g>
</svg>
