<svg xmlns="http://www.w3.org/2000/svg" width="117.156" height="100.389" viewBox="0 0 117.156 100.389">
  <g id="Group_7251" data-name="Group 7251" transform="translate(2.809)">
    <g id="Group_7239" data-name="Group 7239" transform="translate(0 0)">
      <rect id="Rectangle_3267" data-name="Rectangle 3267" width="70.985" height="70.986" transform="translate(8.632 50.194) rotate(-45)" fill="#29b473" opacity="0.5"/>
      <g id="Group_7238" data-name="Group 7238" transform="translate(0 14.323)">
        <g id="Group_7236" data-name="Group 7236" transform="translate(42.466 6.005)">
          <path id="Path_4610" data-name="Path 4610" d="M4871.857,168.326l23.073-20.585,23.155,19.243" transform="translate(-4846.843 -147.741)" fill="none" stroke="#231f20" stroke-miterlimit="10" stroke-width="2"/>
          <line id="Line_302" data-name="Line 302" x2="69.257" transform="translate(0 52.209)" fill="none" stroke="#231f20" stroke-miterlimit="10" stroke-width="2"/>
          <g id="Group_7235" data-name="Group 7235" transform="translate(32.033 20.734)">
            <line id="Line_303" data-name="Line 303" y2="31.027" transform="translate(0 0.597)" fill="none" stroke="#231f20" stroke-miterlimit="10" stroke-width="2"/>
            <line id="Line_304" data-name="Line 304" y2="31.027" transform="translate(32.189 0.597)" fill="none" stroke="#231f20" stroke-miterlimit="10" stroke-width="2"/>
            <path id="Path_4611" data-name="Path 4611" d="M4913.2,248.251v-12.53h9.643v12.53" transform="translate(-4901.576 -216.777)" fill="none" stroke="#231f20" stroke-miterlimit="10" stroke-width="2"/>
            <rect id="Rectangle_3268" data-name="Rectangle 3268" width="9.643" height="7.235" transform="translate(11.628)" fill="none" stroke="#231f20" stroke-miterlimit="10" stroke-width="2"/>
          </g>
        </g>
        <line id="Line_305" data-name="Line 305" y1="13.957" transform="translate(14.655 28.191)" fill="none" stroke="#231f20" stroke-miterlimit="10" stroke-width="2"/>
        <line id="Line_306" data-name="Line 306" x2="4.105" y2="2.299" transform="translate(10.523 32.104)" fill="none" stroke="#231f20" stroke-miterlimit="10" stroke-width="2"/>
        <path id="Path_4612" data-name="Path 4612" d="M4737.132,186.309s-13.049-.8-6.022-12.581c0,0-3.078-8.365,3.948-10.1,0,0-2.142-6.023,2.944-7.361,0,0,4.751-1.4,6.223,4.082,0,0,8.633,1.071,4.551,9.5,0,0,5.956,2.075,4.149,9.034,0,0-1.874,4.818-6.759,4.751" transform="translate(-4725.965 -146.326)" fill="none" stroke="#231f20" stroke-miterlimit="10" stroke-width="2"/>
        <path id="Path_4613" data-name="Path 4613" d="M4763.908,142.155a4.92,4.92,0,0,1,4.684-4.684s.871-3.413,3.948-3.011a3.713,3.713,0,0,1,2.744,4.952s5.487,2.945,2.409,7.629c0,0,3.346,2.342,2.008,6.089a5.377,5.377,0,0,1-5.956,3.681" transform="translate(-4745.111 -134.426)" fill="none" stroke="#231f20" stroke-miterlimit="10" stroke-width="2"/>
        <path id="Path_4614" data-name="Path 4614" d="M4746.615,217.857l-13.177,10.406h-11.206l12.684-10.345h23.521v-17.98h6.609v1.355" transform="translate(-4722.231 -170.393)" fill="none" stroke="#231f20" stroke-miterlimit="10" stroke-width="2"/>
        <line id="Line_307" data-name="Line 307" y2="10.776" transform="translate(24.076 47.587)" fill="none" stroke="#231f20" stroke-miterlimit="10" stroke-width="2"/>
        <line id="Line_308" data-name="Line 308" y2="10.776" transform="translate(36.206 47.587)" fill="none" stroke="#231f20" stroke-miterlimit="10" stroke-width="2"/>
        <line id="Line_309" data-name="Line 309" y1="28.694" transform="translate(42.815 29.669)" fill="none" stroke="#231f20" stroke-miterlimit="10" stroke-width="2"/>
        <g id="Group_7237" data-name="Group 7237" transform="translate(35.939 35.662)">
          <line id="Line_310" data-name="Line 310" x2="6.65" transform="translate(0.308)" fill="none" stroke="#231f20" stroke-miterlimit="10" stroke-width="2"/>
          <line id="Line_311" data-name="Line 311" x2="6.65" transform="translate(0 5.973)" fill="none" stroke="#231f20" stroke-miterlimit="10" stroke-width="2"/>
          <line id="Line_312" data-name="Line 312" x2="6.65" transform="translate(0 11.946)" fill="none" stroke="#231f20" stroke-miterlimit="10" stroke-width="2"/>
          <line id="Line_313" data-name="Line 313" x2="6.593" transform="translate(0.302 17.613)" fill="none" stroke="#231f20" stroke-miterlimit="10" stroke-width="2"/>
        </g>
        <path id="Path_4615" data-name="Path 4615" d="M4910.192,154.518" transform="translate(-4825.423 -145.457)" fill="none" stroke="#231f20" stroke-miterlimit="10" stroke-width="2"/>
      </g>
    </g>
  </g>
</svg>
