<svg xmlns="http://www.w3.org/2000/svg" width="64.466" height="65.718" viewBox="0 0 64.466 65.718">
  <g id="Group_1776" data-name="Group 1776" transform="translate(-499 -923.197)">
    <g id="Group_1765" data-name="Group 1765" transform="translate(500 924.197)">
      <line id="Line_93" data-name="Line 93" x2="62.466" transform="translate(0 63.718)" fill="none" stroke="#1a1818" stroke-linecap="round" stroke-linejoin="round" stroke-width="2"/>
      <path id="Path_3932" data-name="Path 3932" d="M1459.54,510.09c1.315-1.229,2.319-4.425,2.319-5.968a10.2,10.2,0,1,0-10.2,10.2q.278,0,.552-.015l2.483,3.883-14.269-1.92a4.04,4.04,0,0,0-1.241.038c-9.273,1.725-10.2,17.592-6.441,28.638,2.992,8.786,8.418,15.266,16.648,10.626l-.006-.006,13.722-12.229,13.464,12.358a5.312,5.312,0,0,0,6.684.079,4.04,4.04,0,0,0,.079-5.713L1466.153,532.3c.156-.762-4.3-2.268-6.374-.243l-.1.1-11.535,8.794c-1.022-5.022-3.237-15.1,3.886-14.788l10.068.441v.012a4.051,4.051,0,0,0,3.381-6.526l-8.463-13.24c-2.023-3.654-6.251-4.124-7.635-1.276" transform="translate(-1426.344 -493.923)" fill="none" stroke="#1a1818" stroke-linecap="round" stroke-linejoin="round" stroke-width="2"/>
    </g>
  </g>
</svg>
