<svg id="_Icons_Search" data-name="_Icons / Search" xmlns="http://www.w3.org/2000/svg" xmlns:xlink="http://www.w3.org/1999/xlink" width="28" height="28" viewBox="0 0 28 28">
  <defs>
    <clipPath id="clip-path">
      <path id="Search" d="M16.293,17.708,12.9,14.317A8.009,8.009,0,1,1,14.317,12.9l3.39,3.389a1,1,0,0,1-1.415,1.415ZM2,8A6,6,0,1,0,8,2,6.007,6.007,0,0,0,2,8Z" transform="translate(5 5)"/>
    </clipPath>
  </defs>
  <g id="Group_2" data-name="Group 2">
    <path id="Search-2" data-name="Search" d="M16.293,17.708,12.9,14.317A8.009,8.009,0,1,1,14.317,12.9l3.39,3.389a1,1,0,0,1-1.415,1.415ZM2,8A6,6,0,1,0,8,2,6.007,6.007,0,0,0,2,8Z" transform="translate(5 5)"/>
  </g>
</svg>
