<svg xmlns="http://www.w3.org/2000/svg" width="52" height="58.672" viewBox="0 0 52 58.672"><g transform="translate(-166.089 -117.764)"><path d="M210.452,184.69h-9.219a12.123,12.123,0,0,0-11.035,7.1l-3.959,9.916a3.023,3.023,0,0,0,3.4,4.2l14.838-4.362a4.852,4.852,0,0,1,2.735,0l14.811,4.355a3.037,3.037,0,0,0,3.415-4.224l-3.948-9.891A12.124,12.124,0,0,0,210.452,184.69Z" transform="translate(-13.651 -47.69)" fill="none" stroke="#343844" stroke-miterlimit="10" stroke-width="2"/><circle cx="7.735" cy="7.735" r="7.735" transform="translate(184.451 118.764)" fill="none" stroke="#343844" stroke-miterlimit="10" stroke-width="2"/><path d="M221.553,254.865" transform="translate(-39.399 -98.454)" fill="none" stroke="#343844" stroke-miterlimit="10" stroke-width="2"/><path d="M202.032,255.93a4.854,4.854,0,0,0,2.591,4l9.868,5.175a4.851,4.851,0,0,1,2.6,4.3h0a4.851,4.851,0,0,1-2.626,4.311l-.78.4a4.851,4.851,0,0,1-2.225.541H172.721a4.85,4.85,0,0,1-2.225-.541l-.78-.4a4.852,4.852,0,0,1-2.627-4.311h0a4.852,4.852,0,0,1,2.6-4.3l9.868-5.175a4.855,4.855,0,0,0,2.585-3.925" transform="translate(0 -99.224)" fill="none" stroke="#343844" stroke-miterlimit="10" stroke-width="2"/><path d="M233.842,289.926l-18.333,2.059a3.645,3.645,0,0,0-3.238,3.622h0a3.645,3.645,0,0,0,3.645,3.645h17.926" transform="translate(-32.684 -123.817)" fill="none" stroke="#343844" stroke-miterlimit="10" stroke-width="2"/><path d="M237.469,212.962l-3.515-.976a14.854,14.854,0,0,1-8.57-6.357h0a.608.608,0,0,0-1.027,0h0a14.854,14.854,0,0,1-8.57,6.357l-3.516.976" transform="translate(-32.684 -62.633)" fill="none" stroke="#343844" stroke-miterlimit="10" stroke-width="2"/></g></svg>