<svg xmlns="http://www.w3.org/2000/svg" width="87.917" height="37.881" viewBox="0 0 87.917 37.881">
  <g id="Group_7130" data-name="Group 7130" transform="translate(0.636 0.506)">
    <g id="Group_7129" data-name="Group 7129" transform="translate(0 0)">
      <path id="Path_4557" data-name="Path 4557" d="M-497.639,164.835s19.5-8.59,35.178-6.954l-.409,20.453" transform="translate(505.752 -157.674)" fill="none" stroke="#181818" stroke-miterlimit="10" stroke-width="1"/>
      <path id="Path_4558" data-name="Path 4558" d="M-391.335,157.755s21.241,1.663,34.279,10.526l-6.923,17.465" transform="translate(439.994 -157.724)" fill="none" stroke="#181818" stroke-miterlimit="10" stroke-width="1"/>
      <path id="Path_4559" data-name="Path 4559" d="M-475.891,173.253s-19.975-1.977-43.019,11.862l8.386,18.953" transform="translate(518.91 -167.25)" fill="none" stroke="#181818" stroke-miterlimit="10" stroke-width="1"/>
      <path id="Path_4560" data-name="Path 4560" d="M-392.539,173.4s15.339-.75,38.451,11.726l-7.7,19.089" transform="translate(440.739 -167.395)" fill="none" stroke="#181818" stroke-miterlimit="10" stroke-width="1"/>
      <line id="Line_240" data-name="Line 240" x2="9.699" y2="27.832" transform="translate(19.988 8.938)" fill="none" stroke="#181818" stroke-miterlimit="10" stroke-width="1"/>
      <line id="Line_241" data-name="Line 241" x1="9.699" y2="27.832" transform="translate(56.465 9.043)" fill="none" stroke="#181818" stroke-miterlimit="10" stroke-width="1"/>
      <path id="Path_4561" data-name="Path 4561" d="M-483.916,241.425l-2.214-6.115,6.747-1.687,3.057,7.485" transform="translate(498.633 -204.655)" fill="none" stroke="#181818" stroke-miterlimit="10" stroke-width="1"/>
      <path id="Path_4562" data-name="Path 4562" d="M-343.1,241.425l2.214-6.115-6.747-1.687-3.057,7.485" transform="translate(414.852 -204.655)" fill="none" stroke="#181818" stroke-miterlimit="10" stroke-width="1"/>
      <path id="Path_4563" data-name="Path 4563" d="M-425.6,236.019V225.055h13.705v10.964" transform="translate(461.188 -199.355)" fill="none" stroke="#181818" stroke-miterlimit="10" stroke-width="1"/>
      <line id="Line_242" data-name="Line 242" x2="83.878" transform="translate(1.012 36.875)" fill="none" stroke="#181818" stroke-miterlimit="10" stroke-width="1"/>
    </g>
  </g>
</svg>
