<svg xmlns="http://www.w3.org/2000/svg" width="83.737" height="42.996" viewBox="0 0 83.737 42.996">
  <g id="Group_7280" data-name="Group 7280" transform="translate(1.404 0.509)">
    <g id="Group_7134" data-name="Group 7134" transform="translate(0 0)">
      <g id="Group_7132" data-name="Group 7132" transform="translate(30.629 4.331)">
        <path id="Path_4564" data-name="Path 4564" d="M-1001.392,162.588l16.641-14.847,16.7,13.879" transform="translate(1019.434 -147.741)" fill="none" stroke="#181818" stroke-miterlimit="10" stroke-width="1"/>
        <line id="Line_243" data-name="Line 243" x2="49.952" transform="translate(0 37.656)" fill="none" stroke="#181818" stroke-miterlimit="10" stroke-width="1"/>
        <g id="Group_7131" data-name="Group 7131" transform="translate(23.104 14.955)">
          <line id="Line_244" data-name="Line 244" y2="22.379" transform="translate(0 0.43)" fill="none" stroke="#181818" stroke-miterlimit="10" stroke-width="1"/>
          <line id="Line_245" data-name="Line 245" y2="22.379" transform="translate(23.217 0.43)" fill="none" stroke="#181818" stroke-miterlimit="10" stroke-width="1"/>
          <path id="Path_4565" data-name="Path 4565" d="M-960.045,244.759v-9.037h6.955v9.037" transform="translate(968.432 -222.058)" fill="none" stroke="#181818" stroke-miterlimit="10" stroke-width="1"/>
          <rect id="Rectangle_3231" data-name="Rectangle 3231" width="6.955" height="5.218" transform="translate(8.387)" fill="none" stroke="#181818" stroke-miterlimit="10" stroke-width="1"/>
        </g>
      </g>
      <line id="Line_246" data-name="Line 246" y1="10.067" transform="translate(10.57 20.333)" fill="none" stroke="#181818" stroke-miterlimit="10" stroke-width="1"/>
      <line id="Line_247" data-name="Line 247" x2="2.961" y2="1.658" transform="translate(7.59 23.156)" fill="none" stroke="#181818" stroke-miterlimit="10" stroke-width="1"/>
      <path id="Path_4566" data-name="Path 4566" d="M-1138.374,177.889s-9.412-.579-4.344-9.074c0,0-2.22-6.033,2.848-7.288,0,0-1.545-4.344,2.124-5.309,0,0,3.427-1.013,4.489,2.944,0,0,6.226.772,3.282,6.853,0,0,4.3,1.5,2.992,6.516,0,0-1.351,3.475-4.875,3.427" transform="translate(1146.429 -149.051)" fill="none" stroke="#181818" stroke-miterlimit="10" stroke-width="1"/>
      <path id="Path_4567" data-name="Path 4567" d="M-1109.341,140a3.549,3.549,0,0,1,3.379-3.379s.627-2.461,2.848-2.172a2.678,2.678,0,0,1,1.979,3.572s3.958,2.124,1.738,5.5a3.921,3.921,0,0,1,1.448,4.392,3.877,3.877,0,0,1-4.3,2.655" transform="translate(1122.898 -134.426)" fill="none" stroke="#181818" stroke-miterlimit="10" stroke-width="1"/>
      <path id="Path_4568" data-name="Path 4568" d="M-1133.431,212.862l-9.5,7.506h-8.083l9.149-7.461h16.965V199.938h4.767v.977" transform="translate(1151.018 -178.628)" fill="none" stroke="#181818" stroke-miterlimit="10" stroke-width="1"/>
      <line id="Line_248" data-name="Line 248" y2="7.772" transform="translate(17.365 34.323)" fill="none" stroke="#181818" stroke-miterlimit="10" stroke-width="1"/>
      <line id="Line_249" data-name="Line 249" y2="7.772" transform="translate(26.114 34.323)" fill="none" stroke="#181818" stroke-miterlimit="10" stroke-width="1"/>
      <line id="Line_250" data-name="Line 250" y1="20.696" transform="translate(30.881 21.399)" fill="none" stroke="#181818" stroke-miterlimit="10" stroke-width="1"/>
      <g id="Group_7133" data-name="Group 7133" transform="translate(25.922 25.722)">
        <line id="Line_251" data-name="Line 251" x2="4.796" transform="translate(0.222)" fill="none" stroke="#181818" stroke-miterlimit="10" stroke-width="1"/>
        <line id="Line_252" data-name="Line 252" x2="4.796" transform="translate(0 4.308)" fill="none" stroke="#181818" stroke-miterlimit="10" stroke-width="1"/>
        <line id="Line_253" data-name="Line 253" x2="4.796" transform="translate(0 8.616)" fill="none" stroke="#181818" stroke-miterlimit="10" stroke-width="1"/>
        <line id="Line_254" data-name="Line 254" x2="4.755" transform="translate(0.218 12.703)" fill="none" stroke="#181818" stroke-miterlimit="10" stroke-width="1"/>
      </g>
      <path id="Path_4569" data-name="Path 4569" d="M-963.058,154.518" transform="translate(1024.198 -147.982)" fill="none" stroke="#181818" stroke-miterlimit="10" stroke-width="1"/>
    </g>
  </g>
</svg>
