<?xml version="1.0" encoding="iso-8859-1"?>
<!-- Generator: Adobe Illustrator 19.0.0, SVG Export Plug-In . SVG Version: 6.00 Build 0)  -->
<svg version="1.1" id="Layer_1" xmlns="http://www.w3.org/2000/svg" xmlns:xlink="http://www.w3.org/1999/xlink" x="0px" y="0px"
	 viewBox="0 0 512 512" style="enable-background:new 0 0 512 512;" xml:space="preserve">
<path style="fill:#F8981D;" d="M497.987,290.672h-23.72v21.215c0,3.268-2.659,5.928-5.928,5.928c-3.269,0-5.928-2.66-5.928-5.928
	v-21.215h-24.221v35.678c0,3.269-2.659,5.928-5.928,5.928c-3.268,0-5.928-2.659-5.928-5.928v-35.678H404.98v42.457
	c0,3.269-2.659,5.928-5.928,5.928h-15.447l-0.633,2.275c-0.691,2.495-1.339,4.754-1.985,6.907l-0.327,1.075
	c-0.78,2.574-1.5,4.87-2.201,7.017l-0.327,0.982c-0.717,2.176-1.451,4.336-2.202,6.481l-0.57,1.616
	c-0.723,2.035-1.461,4.05-2.213,6.049l-1.546,4.124h61.766v5.928h42.954v-5.928h21.667V290.672z"/>
<path style="fill:#75C04D;" d="M328.852,37.06c-3.839-0.731-7.834-1.101-11.871-1.101c-17.011,0-34.142,6.42-48.236,18.077
	c-17.487,14.459-27.937,35.34-27.956,55.858l-0.002,1.786l1.756,0.334c3.842,0.73,7.834,1.101,11.869,1.101
	c17.013,0,34.146-6.421,48.24-18.081c17.486-14.461,27.935-35.341,27.953-55.853l0.001-1.786L328.852,37.06z"/>
<path style="fill:#F8981D;" d="M393.124,242.286h-22.643v19.251c0,3.269-2.66,5.928-5.928,5.928s-5.928-2.659-5.928-5.928v-19.251
	h-24.221V276c0,3.268-2.659,5.928-5.928,5.928c-3.268,0-5.928-2.66-5.928-5.928v-33.714h-24.217v19.251
	c0,3.269-2.66,5.928-5.928,5.928s-5.928-2.659-5.928-5.928v-19.251h-24.221V276c0,3.268-2.66,5.928-5.928,5.928
	c-3.268,0-5.928-2.66-5.928-5.928v-33.714h-24.221v19.251c0,3.269-2.66,5.928-5.928,5.928s-5.928-2.659-5.928-5.928v-19.251h-24.219
	V276c0,3.268-2.66,5.928-5.928,5.928s-5.928-2.66-5.928-5.928v-33.714h-24.221v19.251c0,3.269-2.66,5.928-5.928,5.928
	s-5.928-2.659-5.928-5.928v-19.251h-24.22V276c0,3.268-2.66,5.928-5.928,5.928c-3.269,0-5.928-2.66-5.928-5.928v-33.714h-24.22
	v19.251c0,3.269-2.66,5.928-5.928,5.928c-3.268,0-5.928-2.659-5.928-5.928v-19.251h-24.22V276c0,3.268-2.66,5.928-5.928,5.928
	c-3.269,0-5.928-2.66-5.928-5.928v-33.714H14.013v91.381h379.112V242.286z"/>
<g>
	<path style="fill:#F04C35;" d="M29.387,336.001c12.559,43.504,33.325,82.27,48.572,104.044
		c16.745,23.912,34.859,36.036,53.834,36.036c10.688,0,19.142-4.021,23.229-6.419c13.475-7.904,38.647-10.956,41.476-11.277
		c0.23-0.026,0.463-0.04,0.696-0.04h12.749c0.232,0,0.463,0.014,0.696,0.04c2.826,0.321,27.999,3.372,41.477,11.278
		c4.087,2.397,12.541,6.418,23.228,6.418h0.003c18.975,0,37.086-12.125,53.831-36.036c12.251-17.496,24.933-41.159,34.798-64.929
		l0.053-0.141c3.375-8.142,6.476-16.409,9.219-24.578l0.204-0.612c1.272-3.803,2.491-7.675,3.627-11.512l1.486-5.145H28.558
		L29.387,336.001z"/>
	<path style="fill:#F04C35;" d="M376.027,227.716c-4.326-16.144-11.296-30.859-20.725-43.747c-0.052-0.069-0.1-0.139-0.158-0.226
		c-0.236-0.351-24.016-35.206-60.984-35.206c-7.737,0-15.666,1.519-23.569,4.515c-39.234,14.879-56.981,17.102-64.067,17.103
		c-1,0-1.917-0.044-2.725-0.13l-0.231-0.025l-0.231,0.025c-0.808,0.086-1.725,0.13-2.724,0.13c-7.083,0-24.825-2.222-64.067-17.103
		c-7.902-2.997-15.832-4.515-23.569-4.515c-37.262,0-60.758,34.863-60.992,35.218c-0.052,0.077-0.105,0.152-0.156,0.223
		c-9.423,12.881-16.394,27.596-20.719,43.739l-0.728,2.714h346.371L376.027,227.716z"/>
</g>
<g style="opacity:0.19;">
	<path style="fill:#202121;" d="M104.389,441.54c-14.614-20.87-34.519-58.03-46.556-99.729l-0.794-2.754H35.816l0.794,2.754
		c12.038,41.699,31.943,78.859,46.556,99.729c16.052,22.92,33.413,34.541,51.602,34.541c3.866,0,7.428-0.55,10.574-1.357
		C131.014,471.058,117.278,459.945,104.389,441.54z"/>
</g>
<g style="opacity:0.19;">
	<path style="fill:#202121;" d="M73.05,183.977c0.052-0.071,0.105-0.147,0.156-0.223c0.21-0.32,19.342-28.69,50.421-34.264
		c-3.575-0.623-7.132-0.954-10.651-0.954c-37.262,0-60.758,34.863-60.992,35.218c-0.052,0.077-0.105,0.152-0.156,0.223
		c-9.423,12.881-16.394,27.596-20.719,43.739l-0.728,2.714h21.222l0.728-2.714C56.657,211.573,63.627,196.858,73.05,183.977z"/>
</g>
<g>
	<path style="fill:#202121;" d="M119.954,65.185c55.403,0,71.333,38.851,74.94,71.442c0.457,4.136,3.958,7.196,8.025,7.196
		c0.296,0,0.597-0.017,0.899-0.051c4.438-0.49,7.637-4.486,7.145-8.924c-1.657-14.972-6.477-36.538-20.029-54.264
		c-16.016-20.947-39.898-31.567-70.98-31.567c-4.466,0-8.084,3.618-8.084,8.084C111.869,61.565,115.489,65.185,119.954,65.185z"/>
	<path style="fill:#202121;" d="M232.883,124.078c6.851,2.023,14.095,3.049,21.529,3.049h0.001c20.265,0,40.571-7.564,57.169-21.296
		c22.797-18.853,35.323-47.162,32.684-73.877c-0.323-3.275-2.6-6.027-5.756-6.959c-6.853-2.023-14.097-3.049-21.53-3.049
		c-20.264,0-40.568,7.563-57.166,21.292c-22.797,18.851-35.324,47.161-32.687,73.88
		C227.451,120.392,229.726,123.145,232.883,124.078z M270.119,55.698c13.709-11.338,30.35-17.584,46.863-17.584
		c3.917,0,7.755,0.357,11.468,1.063c-0.017,19.739-10.093,40.072-27.17,54.194c-13.71,11.342-30.354,17.586-46.866,17.586
		c-3.917,0-7.754-0.357-11.467-1.062C242.963,90.153,253.041,69.818,270.119,55.698z"/>
	<path style="fill:#202121;" d="M503.916,276.659h-96.779v-40.301c0-4.466-3.618-8.084-8.084-8.084h-8.443
		c-4.644-19.422-12.658-37.039-23.895-52.435c-2.239-3.311-28.902-41.315-72.555-41.315c-9.442,0-19.043,1.826-28.538,5.426
		c-38.537,14.614-54.167,16.192-59.099,16.192c-0.439,0-0.76-0.015-0.974-0.028c-1.781-0.773-2.175-0.773-3.958,0
		c-0.215,0.014-0.536,0.028-0.977,0.028c-4.93,0-20.559-1.578-59.099-16.192c-9.495-3.6-19.096-5.426-28.538-5.426
		c-43.66,0-70.32,38.009-72.556,41.316c-11.237,15.399-19.251,33.015-23.894,52.435H8.084c-4.466,0-8.084,3.618-8.084,8.084v96.77
		c0,4.466,3.618,8.084,8.084,8.084h13.811c12.314,44.953,33.541,85.154,49.794,108.364c39.909,56.99,80.84,39.239,92.435,32.438
		c8.594-5.041,26.888-8.091,33.805-8.921h11.279c6.91,0.826,25.183,3.864,33.805,8.922c5.068,2.973,15.741,8.039,29.486,8.038
		c17.696-0.002,40.486-8.401,62.947-40.477c10.096-14.417,22.112-35.387,32.72-59.979h76.539c4.466,0,8.084-3.618,8.084-8.084
		s-3.618-8.084-8.084-8.084h-69.981c0.15-0.396,0.286-0.791,0.434-1.187c0.76-2.026,1.509-4.068,2.242-6.129
		c0.189-0.531,0.375-1.062,0.562-1.592c0.758-2.162,1.498-4.343,2.222-6.539c0.108-0.327,0.22-0.653,0.326-0.98
		c0.761-2.335,1.496-4.691,2.214-7.06c0.11-0.363,0.224-0.727,0.332-1.09c0.689-2.299,1.351-4.616,1.994-6.943
		c0.064-0.232,0.137-0.466,0.201-0.696h13.804c4.466,0,8.084-3.618,8.084-8.084v-40.301h17.04v33.523
		c0,4.466,3.618,8.084,8.084,8.084s8.084-3.618,8.084-8.084v-33.523h19.91v19.059c0,4.466,3.618,8.084,8.084,8.084
		s8.084-3.618,8.084-8.084v-19.059h19.407v80.601h-25.984c-4.466,0-8.084,3.618-8.084,8.084s3.618,8.084,8.084,8.084h34.068
		c4.466,0,8.084-3.618,8.084-8.084v-96.769C512,280.277,508.382,276.659,503.916,276.659z M53.569,185.249
		c0.073-0.101,0.146-0.203,0.215-0.308c0.226-0.342,23.106-34.249,59.193-34.249c7.476,0,15.15,1.472,22.805,4.376
		c39.564,15.003,57.601,17.243,64.831,17.243c1.187,0,2.161-0.058,2.954-0.143c0.793,0.085,1.77,0.143,2.956,0.143
		c7.232-0.001,25.27-2.241,64.831-17.243c7.657-2.903,15.33-4.376,22.805-4.376c35.872,0,58.974,33.922,59.194,34.25
		c0.068,0.105,0.14,0.207,0.215,0.308c9.284,12.69,16.117,27.127,20.375,43.023H33.193
		C37.451,212.379,44.284,197.942,53.569,185.249z M390.969,325.045H379.02h-20.553h-25.141c-4.466,0-8.084,3.618-8.084,8.084
		s3.618,8.084,8.084,8.084h25.141h9.975c-0.113,0.393-0.22,0.786-0.335,1.18c-0.096,0.329-0.194,0.656-0.291,0.985
		c-1.081,3.648-2.233,7.309-3.459,10.982c-0.061,0.183-0.122,0.365-0.183,0.549c-2.623,7.811-5.567,15.665-8.82,23.508
		c-0.011,0.025-0.016,0.052-0.027,0.078c-10.569,25.467-22.887,47.192-33.123,61.81c-31.1,44.411-60.021,34.21-71.01,27.767
		c-13.312-7.808-37.848-10.779-40.603-11.093c-0.303-0.035-0.607-0.052-0.913-0.052h-12.221c-0.305,0-0.609,0.017-0.913,0.052
		c-2.755,0.314-27.289,3.284-40.6,11.092c-10.99,6.446-39.912,16.643-71.011-27.766c-14.956-21.357-34.356-57.881-46.251-99.091
		h168.887h98.086c4.466,0,8.084-3.618,8.084-8.084s-3.618-8.084-8.084-8.084h-98.086H28.117H16.168v-80.602h6.859h8.748v31.559
		c0,4.466,3.618,8.084,8.084,8.084s8.084-3.618,8.084-8.084v-31.559h19.909v17.095c0,4.466,3.618,8.084,8.084,8.084
		s8.084-3.618,8.084-8.084v-17.095h19.909v31.559c0,4.466,3.618,8.084,8.084,8.084c4.466,0,8.084-3.618,8.084-8.084v-31.559h19.909
		v17.095c0,4.466,3.618,8.084,8.084,8.084s8.084-3.618,8.084-8.084v-17.095h19.91v31.559c0,4.466,3.618,8.084,8.084,8.084
		c4.466,0,8.084-3.618,8.084-8.084v-31.559h19.908v17.095c0,4.466,3.618,8.084,8.084,8.084c4.466,0,8.084-3.618,8.084-8.084v-17.095
		h19.91v31.559c0,4.466,3.618,8.084,8.084,8.084c4.466,0,8.084-3.618,8.084-8.084v-31.559h19.91v17.095
		c0,4.466,3.618,8.084,8.084,8.084c4.466,0,8.084-3.618,8.084-8.084v-17.095h19.907v31.559c0,4.466,3.618,8.084,8.084,8.084
		s8.084-3.618,8.084-8.084v-31.559h19.91v17.095c0,4.466,3.618,8.084,8.084,8.084s8.084-3.618,8.084-8.084v-17.095h11.473h6.859
		v40.301v40.3H390.969z"/>
</g>
<g style="opacity:0.19;">
	<polygon style="fill:#202121;" points="23.027,239.861 23.027,242.286 14.013,242.286 14.013,327.2 29.103,327.2 29.103,297.739 
		29.103,256.299 33.931,256.299 45.788,256.299 49.022,256.299 60.878,256.299 70.008,256.299 81.865,256.299 85.099,256.299 
		96.956,256.299 106.085,256.299 117.942,256.299 121.176,256.299 133.033,256.299 142.162,256.299 154.019,256.299 
		157.253,256.299 169.11,256.299 178.24,256.299 190.096,256.299 193.33,256.299 205.187,256.299 214.316,256.299 226.172,256.299 
		229.406,256.299 241.263,256.299 250.394,256.299 262.251,256.299 265.484,256.299 277.341,256.299 286.472,256.299 
		298.329,256.299 301.563,256.299 313.419,256.299 322.546,256.299 334.403,256.299 337.637,256.299 349.493,256.299 
		358.624,256.299 370.481,256.299 373.715,256.299 385.572,256.299 393.124,256.299 393.124,242.286 393.124,239.861 	"/>
</g>
<g style="opacity:0.19;">
	<path style="fill:#202121;" d="M420.072,304.684h6.261h11.857h3.234h11.857h9.131h11.857h3.234h11.857h8.629v-14.013h-23.72H462.41
		h-24.221h-11.857h-6.261H404.98v42.457c0,3.269-2.659,5.928-5.928,5.928h-15.447l-0.633,2.275
		c-0.691,2.495-1.339,4.754-1.985,6.907l-0.327,1.075c-0.78,2.574-1.5,4.87-2.201,7.017l-0.327,0.982
		c-0.717,2.176-1.451,4.336-2.202,6.481l-0.57,1.616c-0.723,2.035-1.461,4.05-2.213,6.049l-1.546,4.124h19.096
		c0.486-1.416,0.977-2.828,1.448-4.258l0.327-0.982c0.701-2.147,1.421-4.443,2.201-7.017l0.327-1.075
		c0.647-2.154,1.295-4.412,1.985-6.907l0.633-2.275h16.525c3.269,0,5.928-2.659,5.928-5.928v-42.457H420.072z"/>
</g>
<g>
</g>
<g>
</g>
<g>
</g>
<g>
</g>
<g>
</g>
<g>
</g>
<g>
</g>
<g>
</g>
<g>
</g>
<g>
</g>
<g>
</g>
<g>
</g>
<g>
</g>
<g>
</g>
<g>
</g>
</svg>
