<svg xmlns="http://www.w3.org/2000/svg" width="42.438" height="26.003" viewBox="0 0 42.438 26.003">
  <g id="Group_8815" data-name="Group 8815" transform="translate(6019 -245.493)">
    <path id="Path_4577" data-name="Path 4577" d="M124.414,128.465l-.473-1.078-.164.375h-3.3v-.221h3.161l.309-.7.473,1.078.826-1.883.661,1.508h3.161v.221h-3.3l-.517-1.18Z" transform="translate(-6123.299 132.091)" fill="#00b2a9"/>
    <path id="Path_4578" data-name="Path 4578" d="M127.66,136l-3.038-3.039.156-.156,2.882,2.883,2.926-2.926.156.156Z" transform="translate(-6126.193 127.402)" fill="#00b2a9"/>
    <path id="Path_4579" data-name="Path 4579" d="M129.173,122.823l-.2-.091a2,2,0,0,0-3.237-2.242l-.42.42-.42-.42a2,2,0,0,0-3.269,2.168l-.2.083a2.222,2.222,0,0,1,3.63-2.407l.264.264.264-.264a2.222,2.222,0,0,1,3.594,2.49" transform="translate(-6123.848 136.517)" fill="#00b2a9"/>
    <path id="Path_4580" data-name="Path 4580" d="M76.6,135.581V120.953h6.351" transform="translate(-6092.718 135.632)" fill="none" stroke="#00b2a9" stroke-miterlimit="10" stroke-width="1"/>
    <path id="Path_4581" data-name="Path 4581" d="M179.131,135.581V120.953H172.78" transform="translate(-6159.767 135.632)" fill="none" stroke="#00b2a9" stroke-miterlimit="10" stroke-width="1"/>
    <path id="Path_4582" data-name="Path 4582" d="M107.427,129.1V111.845h16.744V129.1" transform="translate(-6114.206 141.982)" fill="none" stroke="#00b2a9" stroke-miterlimit="10" stroke-width="1"/>
    <path id="Path_4583" data-name="Path 4583" d="M95.041,134.723h-5.2v5.068h5.261" transform="translate(-6101.948 126.032)" fill="none" stroke="#00b2a9" stroke-miterlimit="10" stroke-width="1"/>
    <path id="Path_4584" data-name="Path 4584" d="M162.729,139.791h5.2v-5.068h-5.261" transform="translate(-6152.715 126.032)" fill="none" stroke="#00b2a9" stroke-miterlimit="10" stroke-width="1"/>
    <path id="Path_4585" data-name="Path 4585" d="M125.222,156.659v-5.2h5.517v5.2" transform="translate(-6126.612 114.365)" fill="none" stroke="#00b2a9" stroke-miterlimit="10" stroke-width="1"/>
    <path id="Path_4586" data-name="Path 4586" d="M97.895,87.989,98.536,91h21.428l.385-3.144L109.121,86Z" transform="translate(-6107.56 159.999)" fill="none" stroke="#00b2a9" stroke-miterlimit="10" stroke-width="1"/>
    <line id="Line_256" data-name="Line 256" x2="42.438" transform="translate(-6019 270.996)" fill="#414142"/>
    <line id="Line_257" data-name="Line 257" x2="42.438" transform="translate(-6019 270.996)" fill="none" stroke="#00b2a9" stroke-miterlimit="10" stroke-width="1"/>
  </g>
</svg>
