<svg xmlns="http://www.w3.org/2000/svg" width="73.613" height="57.603" viewBox="0 0 73.613 57.603">
  <g id="Group_7981" data-name="Group 7981" transform="translate(5.005 -3.191)">
    <rect id="Rectangle_3466" data-name="Rectangle 3466" width="40.731" height="40.731" transform="translate(0 31.992) rotate(-45)" fill="#d8b7f0" opacity="0.5"/>
  </g>
  <g id="Group_8450" data-name="Group 8450" transform="translate(6019 -239.519)">
    <path id="Path_4577" data-name="Path 4577" d="M127.31,130.253l-.821-1.871-.285.65h-5.733v-.383h5.483l.535-1.22.821,1.87,1.433-3.267,1.147,2.617h5.483v.383H129.64l-.9-2.047Z" transform="translate(-6111.419 140.997)" fill="#00b2a9"/>
    <path id="Path_4578" data-name="Path 4578" d="M129.892,138.375l-5.27-5.271.271-.271,5,5,5.076-5.076.271.271Z" transform="translate(-6113.39 137.804)" fill="#00b2a9"/>
    <path id="Path_4579" data-name="Path 4579" d="M134.988,125.129l-.349-.159a3.471,3.471,0,0,0-5.616-3.889l-.729.729-.728-.729a3.471,3.471,0,0,0-5.671,3.76l-.355.144a3.854,3.854,0,0,1,6.3-4.175l.458.459.458-.459a3.854,3.854,0,0,1,6.235,4.319" transform="translate(-6111.793 144.011)" fill="#00b2a9"/>
    <path id="Path_4580" data-name="Path 4580" d="M76.6,146.326V120.953H87.621" transform="translate(-6090.597 143.408)" fill="none" stroke="#00b2a9" stroke-miterlimit="10" stroke-width="1"/>
    <path id="Path_4581" data-name="Path 4581" d="M183.8,146.326V120.953H172.78" transform="translate(-6136.25 143.408)" fill="none" stroke="#00b2a9" stroke-miterlimit="10" stroke-width="1"/>
    <path id="Path_4582" data-name="Path 4582" d="M107.427,141.78V111.845h29.045V141.78" transform="translate(-6105.228 147.731)" fill="none" stroke="#00b2a9" stroke-miterlimit="10" stroke-width="1"/>
    <path id="Path_4583" data-name="Path 4583" d="M98.858,134.723H89.844v8.791H98.97" transform="translate(-6096.882 136.872)" fill="none" stroke="#00b2a9" stroke-miterlimit="10" stroke-width="1"/>
    <path id="Path_4584" data-name="Path 4584" d="M162.776,143.514h9.014v-8.791h-9.125" transform="translate(-6131.448 136.871)" fill="none" stroke="#00b2a9" stroke-miterlimit="10" stroke-width="1"/>
    <path id="Path_4585" data-name="Path 4585" d="M125.222,160.48v-9.022h9.57v9.022" transform="translate(-6113.675 128.928)" fill="none" stroke="#00b2a9" stroke-miterlimit="10" stroke-width="1"/>
    <path id="Path_4586" data-name="Path 4586" d="M97.895,89.45l1.113,5.23h37.169l.668-5.453L117.369,86Z" transform="translate(-6100.703 159.999)" fill="none" stroke="#00b2a9" stroke-miterlimit="10" stroke-width="1"/>
    <line id="Line_256" data-name="Line 256" x2="73.613" transform="translate(-6019 289.358)" fill="#414142"/>
    <line id="Line_257" data-name="Line 257" x2="73.613" transform="translate(-6019 289.358)" fill="none" stroke="#00b2a9" stroke-miterlimit="10" stroke-width="1"/>
  </g>
</svg>
