<svg xmlns="http://www.w3.org/2000/svg" width="48.663" height="25.037" viewBox="0 0 48.663 25.037">
  <g id="Group_7280" data-name="Group 7280" transform="translate(1.404 0.506)">
    <g id="Group_7134" data-name="Group 7134" transform="translate(0 0)">
      <g id="Group_7132" data-name="Group 7132" transform="translate(17.53 2.479)">
        <path id="Path_4564" data-name="Path 4564" d="M-1001.391,156.238l9.524-8.5,9.558,7.943" transform="translate(1011.717 -147.741)" fill="none" stroke="#00b2a9" stroke-miterlimit="10" stroke-width="1"/>
        <line id="Line_243" data-name="Line 243" x2="28.589" transform="translate(0 21.552)" fill="none" stroke="#00b2a9" stroke-miterlimit="10" stroke-width="1"/>
        <g id="Group_7131" data-name="Group 7131" transform="translate(13.223 8.559)">
          <line id="Line_244" data-name="Line 244" y2="12.808" transform="translate(0 0.246)" fill="none" stroke="#00b2a9" stroke-miterlimit="10" stroke-width="1"/>
          <line id="Line_245" data-name="Line 245" y2="12.808" transform="translate(13.288 0.246)" fill="none" stroke="#00b2a9" stroke-miterlimit="10" stroke-width="1"/>
          <path id="Path_4565" data-name="Path 4565" d="M-960.045,240.894v-5.172h3.98v5.172" transform="translate(964.845 -227.901)" fill="none" stroke="#00b2a9" stroke-miterlimit="10" stroke-width="1"/>
          <rect id="Rectangle_3231" data-name="Rectangle 3231" width="3.98" height="2.986" transform="translate(4.8)" fill="none" stroke="#00b2a9" stroke-miterlimit="10" stroke-width="1"/>
        </g>
      </g>
      <line id="Line_246" data-name="Line 246" y1="5.762" transform="translate(6.05 11.637)" fill="none" stroke="#00b2a9" stroke-miterlimit="10" stroke-width="1"/>
      <line id="Line_247" data-name="Line 247" x2="1.695" y2="0.949" transform="translate(4.344 13.253)" fill="none" stroke="#00b2a9" stroke-miterlimit="10" stroke-width="1"/>
      <path id="Path_4566" data-name="Path 4566" d="M-1140.873,168.572s-5.387-.332-2.486-5.193c0,0-1.271-3.453,1.63-4.171,0,0-.884-2.486,1.215-3.039a2.048,2.048,0,0,1,2.569,1.685s3.564.442,1.879,3.922a2.944,2.944,0,0,1,1.713,3.729,3.138,3.138,0,0,1-2.79,1.961" transform="translate(1145.483 -152.066)" fill="none" stroke="#00b2a9" stroke-miterlimit="10" stroke-width="1"/>
      <path id="Path_4567" data-name="Path 4567" d="M-1109.341,137.617a2.031,2.031,0,0,1,1.934-1.934s.359-1.409,1.63-1.243a1.533,1.533,0,0,1,1.132,2.044s2.265,1.216.995,3.149a2.244,2.244,0,0,1,.828,2.514,2.219,2.219,0,0,1-2.458,1.519" transform="translate(1117.1 -134.426)" fill="none" stroke="#00b2a9" stroke-miterlimit="10" stroke-width="1"/>
      <path id="Path_4568" data-name="Path 4568" d="M-1140.952,207.335l-5.44,4.3h-4.626l5.236-4.27h9.71v-7.422h2.728v.559" transform="translate(1151.018 -187.742)" fill="none" stroke="#00b2a9" stroke-miterlimit="10" stroke-width="1"/>
      <line id="Line_248" data-name="Line 248" y2="4.448" transform="translate(9.939 19.644)" fill="none" stroke="#00b2a9" stroke-miterlimit="10" stroke-width="1"/>
      <line id="Line_249" data-name="Line 249" y2="4.448" transform="translate(14.946 19.644)" fill="none" stroke="#00b2a9" stroke-miterlimit="10" stroke-width="1"/>
      <line id="Line_250" data-name="Line 250" y1="11.845" transform="translate(17.674 12.247)" fill="none" stroke="#00b2a9" stroke-miterlimit="10" stroke-width="1"/>
      <g id="Group_7133" data-name="Group 7133" transform="translate(14.836 14.721)">
        <line id="Line_251" data-name="Line 251" x2="2.745" transform="translate(0.127)" fill="none" stroke="#00b2a9" stroke-miterlimit="10" stroke-width="1"/>
        <line id="Line_252" data-name="Line 252" x2="2.745" transform="translate(0 2.466)" fill="none" stroke="#00b2a9" stroke-miterlimit="10" stroke-width="1"/>
        <line id="Line_253" data-name="Line 253" x2="2.745" transform="translate(0 4.931)" fill="none" stroke="#00b2a9" stroke-miterlimit="10" stroke-width="1"/>
        <line id="Line_254" data-name="Line 254" x2="2.722" transform="translate(0.125 7.271)" fill="none" stroke="#00b2a9" stroke-miterlimit="10" stroke-width="1"/>
      </g>
      <path id="Path_4569" data-name="Path 4569" d="M-963.058,154.518" transform="translate(998.051 -150.777)" fill="none" stroke="#00b2a9" stroke-miterlimit="10" stroke-width="1"/>
    </g>
  </g>
</svg>
