<svg xmlns="http://www.w3.org/2000/svg" width="21.272" height="21.267" viewBox="0 0 21.272 21.267">
  <path id="instagram" d="M10.563,37.006a5.453,5.453,0,1,0,5.453,5.453A5.444,5.444,0,0,0,10.563,37.006Zm0,9a3.545,3.545,0,1,1,3.545-3.545A3.551,3.551,0,0,1,10.563,46Zm6.947-9.22a1.272,1.272,0,1,1-1.272-1.272A1.269,1.269,0,0,1,17.511,36.783Zm3.611,1.291A6.294,6.294,0,0,0,19.4,33.618,6.335,6.335,0,0,0,14.948,31.9c-1.756-.1-7.019-.1-8.774,0a6.326,6.326,0,0,0-4.456,1.713A6.314,6.314,0,0,0,0,38.069c-.1,1.756-.1,7.019,0,8.774A6.294,6.294,0,0,0,1.718,51.3a6.343,6.343,0,0,0,4.456,1.718c1.756.1,7.019.1,8.774,0A6.294,6.294,0,0,0,19.4,51.3a6.335,6.335,0,0,0,1.718-4.456C21.222,45.087,21.222,39.829,21.122,38.074ZM18.854,48.727a3.589,3.589,0,0,1-2.022,2.022c-1.4.555-4.722.427-6.269.427s-4.874.123-6.269-.427a3.589,3.589,0,0,1-2.022-2.022c-.555-1.4-.427-4.722-.427-6.269s-.123-4.874.427-6.269a3.589,3.589,0,0,1,2.022-2.022c1.4-.555,4.722-.427,6.269-.427s4.874-.123,6.269.427a3.589,3.589,0,0,1,2.022,2.022c.555,1.4.427,4.722.427,6.269S19.409,47.332,18.854,48.727Z" transform="translate(0.075 -31.825)" fill="#181818" opacity="0.804"/>
</svg>
