<svg xmlns="http://www.w3.org/2000/svg" width="31.651" height="25.729" viewBox="0 0 31.651 25.729">
  <g id="Group_7142" data-name="Group 7142" transform="translate(0.5 0.5)">
    <g id="Group_7141" data-name="Group 7141" transform="translate(0 0)">
      <g id="Group_7140" data-name="Group 7140">
        <g id="Group_7138" data-name="Group 7138" transform="translate(7.654 8.577)">
          <g id="Group_7137" data-name="Group 7137" transform="translate(6.346 9.664)">
            <g id="Group_7136" data-name="Group 7136">
              <path id="Path_4570" data-name="Path 4570" d="M252.542,246.711h0a.749.749,0,0,1,.537.226.777.777,0,0,1,0,1.088.75.75,0,0,1-1.072,0,.779.779,0,0,1,0-1.09.746.746,0,0,1,.535-.225m0-.548a1.282,1.282,0,0,0-.917.385,1.333,1.333,0,0,0,0,1.865,1.285,1.285,0,0,0,1.835,0,1.331,1.331,0,0,0,0-1.863,1.286,1.286,0,0,0-.919-.386Z" transform="translate(-251.245 -246.163)" fill="#00b2a9"/>
            </g>
          </g>
          <path id="Path_4571" data-name="Path 4571" d="M243.436,233.16a3.852,3.852,0,0,1,5.506,0" transform="translate(-238.544 -224.976)" fill="none" stroke="#00b2a9" stroke-linecap="round" stroke-miterlimit="10" stroke-width="1.786"/>
          <path id="Path_4572" data-name="Path 4572" d="M230.295,215.313a7.274,7.274,0,0,1,10.4.006" transform="translate(-227.849 -209.614)" fill="none" stroke="#00b2a9" stroke-linecap="round" stroke-miterlimit="10" stroke-width="1.786"/>
          <path id="Path_4573" data-name="Path 4573" d="M217.158,197.465a10.7,10.7,0,0,1,15.295.008" transform="translate(-217.158 -194.252)" fill="none" stroke="#00b2a9" stroke-linecap="round" stroke-miterlimit="10" stroke-width="1.786"/>
        </g>
        <g id="Group_7139" data-name="Group 7139">
          <rect id="Rectangle_3232" data-name="Rectangle 3232" width="30.498" height="24.729" rx="4.049" fill="none" stroke="#00b2a9" stroke-linecap="round" stroke-linejoin="round" stroke-width="1"/>
          <line id="Line_255" data-name="Line 255" x2="30.498" transform="translate(0 4.82)" fill="none" stroke="#00b2a9" stroke-linecap="round" stroke-linejoin="round" stroke-width="1"/>
        </g>
        <path id="Path_4574" data-name="Path 4574" d="M198.335,157.61a.88.88,0,1,1-.88-.894A.887.887,0,0,1,198.335,157.61Z" transform="translate(-192.752 -155.127)" fill="#00b2a9"/>
        <path id="Path_4575" data-name="Path 4575" d="M219.568,157.61a.88.88,0,1,1-.88-.894A.887.887,0,0,1,219.568,157.61Z" transform="translate(-210.033 -155.127)" fill="#00b2a9"/>
      </g>
    </g>
    <path id="Path_4576" data-name="Path 4576" d="M343.368,176.144" transform="translate(-312.217 -170.938)" fill="none" stroke="#231f20" stroke-miterlimit="10" stroke-width="1"/>
  </g>
</svg>
