<svg xmlns="http://www.w3.org/2000/svg" width="24.297" height="19.733" viewBox="0 0 24.297 19.733">
  <path id="twitter" d="M21.8,53c.015.216.015.432.015.648A14.071,14.071,0,0,1,7.647,67.815,14.072,14.072,0,0,1,0,65.58a10.3,10.3,0,0,0,1.2.062,9.973,9.973,0,0,0,6.182-2.127,4.988,4.988,0,0,1-4.656-3.453,6.28,6.28,0,0,0,.94.077,5.267,5.267,0,0,0,1.31-.17A4.98,4.98,0,0,1,.987,55.081V55.02a5.015,5.015,0,0,0,2.251.632A4.987,4.987,0,0,1,1.7,48.992,14.154,14.154,0,0,0,11.963,54.2a5.621,5.621,0,0,1-.123-1.141,4.984,4.984,0,0,1,8.618-3.407,9.8,9.8,0,0,0,3.16-1.2A4.966,4.966,0,0,1,21.429,51.2a9.983,9.983,0,0,0,2.868-.771A10.7,10.7,0,0,1,21.8,53Z" transform="translate(0 -48.082)" fill="#181818" opacity="0.804"/>
</svg>
