<svg xmlns="http://www.w3.org/2000/svg" width="43.562" height="19.026" viewBox="0 0 43.562 19.026">
  <g id="Group_7130" data-name="Group 7130" transform="translate(0.636 0.527)">
    <g id="Group_7129" data-name="Group 7129" transform="translate(0 0)">
      <path id="Path_4557" data-name="Path 4557" d="M-497.639,161.169s9.517-4.193,17.171-3.394l-.2,9.983" transform="translate(501.599 -157.674)" fill="none" stroke="#00b2a9" stroke-miterlimit="10" stroke-width="1"/>
      <path id="Path_4558" data-name="Path 4558" d="M-391.335,157.755s10.368.812,16.732,5.138l-3.379,8.525" transform="translate(415.086 -157.74)" fill="none" stroke="#00b2a9" stroke-miterlimit="10" stroke-width="1"/>
      <path id="Path_4559" data-name="Path 4559" d="M-497.912,173.2s-9.75-.965-21,5.79l4.093,9.251" transform="translate(518.91 -170.273)" fill="none" stroke="#00b2a9" stroke-miterlimit="10" stroke-width="1"/>
      <path id="Path_4560" data-name="Path 4560" d="M-392.539,173.393s7.487-.366,18.768,5.723l-3.76,9.318" transform="translate(416.066 -170.463)" fill="none" stroke="#00b2a9" stroke-miterlimit="10" stroke-width="1"/>
      <line id="Line_240" data-name="Line 240" x2="4.734" y2="13.585" transform="translate(9.756 4.363)" fill="none" stroke="#00b2a9" stroke-miterlimit="10" stroke-width="1"/>
      <line id="Line_241" data-name="Line 241" x1="4.734" y2="13.585" transform="translate(27.561 4.414)" fill="none" stroke="#00b2a9" stroke-miterlimit="10" stroke-width="1"/>
      <path id="Path_4561" data-name="Path 4561" d="M-485.049,237.432l-1.081-2.985,3.293-.823,1.492,3.654" transform="translate(492.233 -219.484)" fill="none" stroke="#00b2a9" stroke-miterlimit="10" stroke-width="1"/>
      <path id="Path_4562" data-name="Path 4562" d="M-346.986,237.432l1.081-2.985-3.293-.823-1.492,3.654" transform="translate(382.009 -219.484)" fill="none" stroke="#00b2a9" stroke-miterlimit="10" stroke-width="1"/>
      <path id="Path_4563" data-name="Path 4563" d="M-425.6,230.407v-5.352h6.69v5.352" transform="translate(442.969 -212.511)" fill="none" stroke="#00b2a9" stroke-miterlimit="10" stroke-width="1"/>
      <line id="Line_242" data-name="Line 242" x2="40.941" transform="translate(0.494 17.999)" fill="none" stroke="#00b2a9" stroke-miterlimit="10" stroke-width="1"/>
    </g>
  </g>
</svg>
